<?xml version="1.0" encoding="UTF-8"?>
<svg version="1.1" xmlns="http://www.w3.org/2000/svg" width="507" height="492">
<path d="M0 0 C1.32 0 2.64 0 4 0 C3.98428955 1.40523926 3.98428955 1.40523926 3.96826172 2.83886719 C3.93382258 6.3725845 3.90892965 9.906119 3.89013672 13.43994141 C3.88018616 14.95852504 3.86662084 16.47709007 3.84912109 17.99560547 C3.71259683 30.16232678 4.15682709 41.65012958 9 53 C9.33773437 53.89074219 9.67546875 54.78148437 10.0234375 55.69921875 C15.75251171 70.40640589 24.5735413 84.12255847 37 94 C37 94.66 37 95.32 37 96 C37.52335938 96.24105469 38.04671875 96.48210937 38.5859375 96.73046875 C41.10032395 98.05275936 43.44988749 99.55827574 45.81982422 101.12207031 C57.0625296 108.53611297 68.03190794 113.42902605 81 117 C82.33611328 117.37511719 82.33611328 117.37511719 83.69921875 117.7578125 C107.02955567 123.09260774 134.56857163 118.12909728 154.77392578 105.56323242 C158.58467806 103.11705314 162.26598331 100.60168692 165.7734375 97.7265625 C168 96 168 96 170 96 C170 95.34 170 94.68 170 94 C171.36328125 92.73046875 171.36328125 92.73046875 173.3125 91.1875 C183.02118919 82.89501679 190.45575143 72.18283268 198.02734375 61.98828125 C215.32607967 38.71863681 233.95580941 14.77772896 264 9 C271.20779119 21.41341816 264.56816578 46.67559404 261.09228516 59.87207031 C250.13179159 99.21059196 224.64325031 136.9948089 188.6953125 157.51171875 C187.80585938 158.00285156 186.91640625 158.49398437 186 159 C184.90429688 159.62519531 183.80859375 160.25039063 182.6796875 160.89453125 C171.92104873 166.92337948 160.2048425 172.75104449 148 175 C149.47987664 183.12388316 151.60508746 190.96902567 153.96484375 198.87695312 C155.65169595 204.79755507 156.28988588 209.84307598 156 216 C140.91738977 224.22687831 116.75661543 217.33872353 101 213 C100.0090332 212.73147217 100.0090332 212.73147217 98.99804688 212.45751953 C76.53127516 206.25425571 56.06756035 195.41473035 37.640625 181.25732422 C36.12539851 180.09610154 34.59459007 178.95528704 33.0625 177.81640625 C28.46119382 174.35823708 28.46119382 174.35823708 27 173 C27 172.34 27 171.68 27 171 C26.43925781 170.76410156 25.87851563 170.52820313 25.30078125 170.28515625 C17.93368085 166.17008659 12.2335169 158.36772301 7.375 151.6171875 C6.92125 151.08351563 6.4675 150.54984375 6 150 C5.34 150 4.68 150 4 150 C-7.63489545 165.1020943 -13.4261477 182.43234037 -14.5 201.4375 C-14.94503815 208.74766369 -15.72074351 214.23700171 -21.375 219.375 C-26.60619692 223.65072717 -31.61072755 224.45471515 -38.21484375 224.3125 C-43.89511537 223.67516237 -48.09632782 221.3135062 -51.875 217.0625 C-55.95504466 211.18243564 -57.02578268 206.10720856 -56 199 C-54.980573 196.51040762 -53.73834343 194.24080189 -52.4375 191.88671875 C-42.5437329 172.01852884 -41.13788858 147.54925362 -47.93066406 126.57128906 C-51.85146949 115.19336466 -57.07810154 105.46367468 -65.49609375 96.7421875 C-67 95 -67 95 -67 93 C-68.485 92.505 -68.485 92.505 -70 92 C-70 91.34 -70 90.68 -70 90 C-70.556875 89.74734375 -71.11375 89.4946875 -71.6875 89.234375 C-74.35597231 87.80998775 -76.60086327 86.09219428 -79 84.25 C-84.69225052 80.06250996 -90.56739596 76.89740522 -97 74 C-97.99386719 73.53980469 -97.99386719 73.53980469 -99.0078125 73.0703125 C-107.73362688 69.40622594 -117.55153709 68.01790077 -126.9375 67.625 C-132.73424343 67.24803386 -136.77275304 66.08733808 -141 62 C-145.00441679 56.85146413 -147.39199395 52.00037531 -147.3671875 45.33984375 C-146.6569931 40.81424325 -144.25599158 36.93187105 -142 33 C-141.34 33 -140.68 33 -140 33 C-139.67 32.01 -139.34 31.02 -139 30 C-134.3020711 26.94634621 -129.5569056 25.71166999 -124 26 C-118.37283364 27.39033789 -113.29301689 29.80495666 -108.1875 32.5 C-89.41937308 42.18291898 -65.96318887 42.44591337 -46.0625 36.3125 C-27.30868236 29.5759313 -11.65101116 19.07895852 -1.45703125 1.6875 C-0.97621094 1.130625 -0.49539062 0.57375 0 0 Z " fill="#FE9935" transform="translate(150,268)"/>
<path d="M0 0 C4.67891355 2.15194306 7.70595404 5.12922372 10.671875 9.31640625 C22.50731013 25.56386749 35.66211321 37.28758676 54.671875 44.31640625 C55.414375 44.64898437 56.156875 44.9815625 56.921875 45.32421875 C77.98659478 52.9242739 101.74548983 49.50295799 121.671875 40.31640625 C124.83646107 38.50180981 127.75667975 36.50280268 130.671875 34.31640625 C135.371875 31.31640625 135.371875 31.31640625 137.671875 31.31640625 C137.671875 30.65640625 137.671875 29.99640625 137.671875 29.31640625 C139.31640625 27.73046875 139.31640625 27.73046875 141.484375 25.94140625 C143.73438357 24.08074343 145.57537785 22.44767922 147.30859375 20.08984375 C147.98341797 19.21199219 147.98341797 19.21199219 148.671875 18.31640625 C149.331875 18.31640625 149.991875 18.31640625 150.671875 18.31640625 C150.94386719 17.74921875 151.21585938 17.18203125 151.49609375 16.59765625 C155.31636203 9.18557428 159.73700344 2.61328951 167.671875 -0.68359375 C174.11522454 -1.37459363 180.22111202 -1.53901147 185.671875 2.31640625 C191.57579573 7.53382457 194.16776613 11.92969884 194.73828125 19.75390625 C194.57356582 26.10998386 191.83207082 30.64815112 187.671875 35.31640625 C185.2265625 37.0546875 185.2265625 37.0546875 182.546875 38.62890625 C173.72138459 44.06540834 166.07617013 50.13229513 159.671875 58.31640625 C159.09824219 59.03054687 158.52460938 59.7446875 157.93359375 60.48046875 C143.70660378 79.34463726 139.98815992 102.47262133 141.9453125 125.5390625 C143.02972317 132.32174435 145.37609779 138.7660554 147.6484375 145.2265625 C148.671875 148.31640625 148.671875 148.31640625 148.671875 150.31640625 C149.331875 150.31640625 149.991875 150.31640625 150.671875 150.31640625 C150.341875 151.96640625 150.011875 153.61640625 149.671875 155.31640625 C146.70694683 153.94289832 144.31182984 152.3130938 141.734375 150.31640625 C128.13659481 140.7919699 113.3566526 135.12037124 97.01269531 132.67236328 C94.83517988 132.34123922 92.67333499 131.96381036 90.5078125 131.5625 C82.82786937 130.16490513 75.13055258 129.11254929 67.38037109 128.18041992 C42.46722147 125.17543802 18.91659955 121.79452523 -0.328125 104.31640625 C-0.905625 103.83042969 -1.483125 103.34445313 -2.078125 102.84375 C-3.515625 101.56640625 -3.515625 101.56640625 -5.328125 99.31640625 C-5.2734375 97.38671875 -5.2734375 97.38671875 -4.328125 95.31640625 C-2.02734375 93.60546875 -2.02734375 93.60546875 0.984375 91.94140625 C2.59505859 91.04615234 2.59505859 91.04615234 4.23828125 90.1328125 C9.33848019 87.43475504 14.47847249 84.83023406 19.671875 82.31640625 C11.92037232 64.27529823 0.96370826 48.99992388 -16.140625 38.69140625 C-22.18668545 34.98520535 -25.05251296 31.44745398 -27.703125 24.94140625 C-28.94215262 17.75504606 -28.00840288 12.10958991 -23.86328125 6.04296875 C-21.36906503 3.23776883 -18.7126009 1.91285715 -15.328125 0.31640625 C-10.86420498 -1.91555376 -4.69069697 -1.37730196 0 0 Z " fill="#FE9A36" transform="translate(169.328125,55.68359375)"/>
<path d="M0 0 C4.62596913 2.6651674 8.71887538 7.16789637 10.22900391 12.36279297 C10.68400895 14.48372702 10.95256358 16.53612166 11.15234375 18.6953125 C11.22864014 19.48824707 11.30493652 20.28118164 11.38354492 21.09814453 C11.50306519 22.34893799 11.50306519 22.34893799 11.625 23.625 C14.02046971 46.70704631 21.89758061 68.46211251 40.31103516 83.85742188 C56.82366836 96.86365712 73.94222876 102.7481771 94.6875 104.5 C95.0175 105.82 95.3475 107.14 95.6875 108.5 C95.098479 108.76627197 94.50945801 109.03254395 93.90258789 109.30688477 C91.17928805 110.54649436 88.46477806 111.8043433 85.75 113.0625 C84.82380859 113.48080078 83.89761719 113.89910156 82.94335938 114.33007812 C77.28844128 116.9690399 72.47183536 119.91938562 67.65795898 123.89746094 C65.7356495 125.46084087 63.7578441 126.82909027 61.6875 128.1875 C57.12041514 131.560397 54.10654393 135.99068165 50.86328125 140.59765625 C48.6875 143.5 48.6875 143.5 46.2734375 145.90234375 C43.1497493 149.04018763 40.61307726 152.43585523 38 156 C36.94708646 157.41701741 35.89369296 158.83367831 34.83984375 160.25 C34.05262939 161.31154297 34.05262939 161.31154297 33.24951172 162.39453125 C30.86676096 165.60629157 28.47486588 168.81042087 26.0625 172 C25.64911377 172.55751953 25.23572754 173.11503906 24.80981445 173.68945312 C23.816675 174.99721548 22.75793454 176.2547136 21.6875 177.5 C21.0275 177.5 20.3675 177.5 19.6875 177.5 C19.44386719 178.06074219 19.20023438 178.62148438 18.94921875 179.19921875 C16.37316786 183.89672332 12.31916709 187.60201066 8.6875 191.5 C8.1409375 192.12390625 7.594375 192.7478125 7.03125 193.390625 C-2.59069281 203.89621562 -18.03325541 212.50377363 -32.3125 213.5 C-33.61412472 210.89675055 -33.34960221 209.13746417 -33.2265625 206.23046875 C-33.18273437 205.17666016 -33.13890625 204.12285156 -33.09375 203.03710938 C-33.01640625 201.37905273 -33.01640625 201.37905273 -32.9375 199.6875 C-32.89367187 198.59373047 -32.84984375 197.49996094 -32.8046875 196.37304688 C-32.59691757 191.637624 -32.34560304 187.13735578 -31.3125 182.5 C-52.33026689 181.7339605 -69.90504102 182.83679245 -88.52734375 193.046875 C-92.73031234 195.23972818 -96.03213588 195.6547825 -100.75 195.6875 C-101.67683594 195.70167969 -102.60367188 195.71585938 -103.55859375 195.73046875 C-109.14156211 195.26324161 -113.61833061 192.67997797 -117.3125 188.5 C-120.45900749 183.33972771 -122.08773382 178.5911229 -121.3125 172.5 C-119.82896649 166.93941756 -117.71001941 161.74016883 -112.73217773 158.45800781 C-106.96265812 155.3427851 -101.52900585 154.62125952 -95.0625 154 C-86.71511575 153.04060608 -79.06115906 151.91560007 -71.3125 148.5 C-70.21292969 148.02949219 -69.11335938 147.55898437 -67.98046875 147.07421875 C-47.93585577 137.81435895 -31.93018395 121.89907786 -24.02734375 101.12109375 C-15.86498112 78.38350791 -17.01877027 56.00145424 -25.3125 33.5 C-26.21387979 31.68989222 -27.14698389 29.89487575 -28.125 28.125 C-30.73452713 23.20323364 -31.2737506 18.98901042 -30.3125 13.5 C-28.45279817 7.56765505 -25.36444804 4.00543333 -20.3125 0.5 C-13.90427242 -2.51314012 -6.56216663 -2.85201857 0 0 Z " fill="#FE9A36" transform="translate(124.3125,83.5)"/>
<path d="M0 0 C4.57481037 2.65301503 7.27585795 6.06218505 9.9375 10.625 C11.85572657 18.29790626 10.83443521 23.71805494 7.0625 30.5546875 C-3.15560791 50.60217095 -4.29532052 75.43657225 2.58984375 96.71484375 C6.32672945 106.31793494 11.27410788 115.253053 17.625 123.375 C18.20636719 124.12136719 18.78773438 124.86773437 19.38671875 125.63671875 C28.7178727 136.84584079 40.2070934 144.03897596 53.625 149.375 C54.29668213 149.64223877 54.96836426 149.90947754 55.66040039 150.18481445 C62.82606183 152.82309902 70.08587809 153.33966393 77.65429688 153.92773438 C85.51553136 154.72539633 92.73296754 156.95906437 98.13037109 163.08300781 C101.21279524 167.57921819 101.84276749 173.03132092 101.625 178.375 C100.32885468 184.4732575 97.31194424 189.02392379 92.625 193.125 C87.5653841 196.28725994 81.3833087 195.82808581 75.625 195.375 C72.125 194.1875 72.125 194.1875 68.625 192.375 C61.76006764 189.08621845 55.01708222 186.239184 47.625 184.375 C46.99182861 184.20581055 46.35865723 184.03662109 45.70629883 183.86230469 C24.20610641 178.51416471 1.26133317 183.22278986 -17.58911133 194.33496094 C-22.47028891 197.28067797 -26.34945901 200.34245807 -30.375 204.375 C-31.035 204.375 -31.695 204.375 -32.375 204.375 C-32.705 205.365 -33.035 206.355 -33.375 207.375 C-34.035 207.375 -34.695 207.375 -35.375 207.375 C-35.63152344 207.93960938 -35.88804687 208.50421875 -36.15234375 209.0859375 C-37.51557613 211.63818727 -39.12945796 213.74277841 -40.9375 216 C-43.3946581 219.03566003 -43.3946581 219.03566003 -45.375 222.375 C-46.695 222.375 -48.015 222.375 -49.375 222.375 C-49.36452637 221.47370361 -49.35405273 220.57240723 -49.34326172 219.64379883 C-49.30876462 216.23491759 -49.28390249 212.82622722 -49.26513672 209.41723633 C-49.25520337 207.95399003 -49.24165207 206.49076289 -49.22412109 205.02758789 C-49.05833542 190.81390397 -50.45573894 178.4275762 -55.875 165.125 C-56.31569824 164.00947754 -56.75639648 162.89395508 -57.21044922 161.74462891 C-59.43089304 156.14110207 -61.70563164 150.55977121 -63.9765625 144.9765625 C-80.44849822 104.40491775 -80.44849822 104.40491775 -81.375 89.375 C-81.44332031 88.35148437 -81.51164062 87.32796875 -81.58203125 86.2734375 C-81.87414231 77.38027856 -80.23938115 69.01995783 -78.375 60.375 C-75.75273712 59.36130116 -74.65851362 59.26355303 -72 60.30859375 C-64.9086385 64.37135294 -58.10965544 68.7441898 -51.375 73.375 C-37.2450478 59.96966073 -32.01676419 39.95216412 -30.9375 21.125 C-30.60683568 15.60168114 -29.68136784 11.38884313 -27.375 6.375 C-26.715 6.375 -26.055 6.375 -25.375 6.375 C-24.98634766 5.45460938 -24.98634766 5.45460938 -24.58984375 4.515625 C-20.00112843 -3.56995697 -7.50657878 -3.37087877 0 0 Z " fill="#FE9935" transform="translate(402.375,83.625)"/>
<path d="M0 0 C3.85185172 2.08260318 7.58037533 4.25504016 11 7 C11 7.66 11 8.32 11 9 C11.99 9.33 12.98 9.66 14 10 C21.68150504 18.9924819 25.40758189 30.19303985 25.28125 41.89453125 C24.47706266 50.77409984 21.23839257 58.84555108 16 66 C15.443125 66.825 14.88625 67.65 14.3125 68.5 C13.6628125 69.2425 13.6628125 69.2425 13 70 C12.34 70 11.68 70 11 70 C11 70.66 11 71.32 11 72 C1.33736502 79.89368802 -9.45069718 82.69697822 -21.76953125 82.34375 C-35.74168948 80.85699072 -45.40428902 73.51855185 -54.08984375 62.94140625 C-58.96442177 55.43515421 -59.6111183 48.64823679 -59.625 39.875 C-59.62733643 38.77220703 -59.62967285 37.66941406 -59.63208008 36.53320312 C-59.43139706 27.46046407 -57.76205356 20.20565156 -52 13 C-51.01 12.67 -50.02 12.34 -49 12 C-48.31573331 10.67561285 -47.650842 9.34112897 -47 8 C-34.93043086 -3.83291093 -15.32431237 -6.49985561 0 0 Z " fill="#FE9935" transform="translate(59,125)"/>
<path d="M0 0 C2.2890625 2.06640625 2.2890625 2.06640625 4 4 C4 4.66 4 5.32 4 6 C4.99 6.33 5.98 6.66 7 7 C15.46816893 17.58974444 15.4238183 30.26558973 14.36621094 43.23876953 C13.60019224 49.01455051 11.55450656 53.35544476 8 58 C7.48179687 58.73734375 6.96359375 59.4746875 6.4296875 60.234375 C0.03273387 68.45461493 -9.72144177 74.32217652 -20 76 C-33.42574934 77.20357096 -45.44518309 74.63871169 -56 66 C-65.24460781 56.59763437 -69.86025212 46.73309562 -70.1875 33.625 C-70.04411466 23.11485442 -66.82162327 14.73243491 -61 6 C-60.34 6 -59.68 6 -59 6 C-58.67 5.01 -58.34 4.02 -58 3 C-57.34 3 -56.68 3 -56 3 C-56 2.34 -56 1.68 -56 1 C-39.45017889 -12.67159135 -17.13459379 -12.29482256 0 0 Z " fill="#FE9A36" transform="translate(493,131)"/>
<path d="M0 0 C9.72288189 9.14901871 14.33345616 19.74437254 14.75390625 32.9296875 C14.4618973 45.10184996 9.4882806 56.19796806 0.63671875 64.6796875 C-10.30524047 73.31957219 -20.74186763 76.37582623 -34.49121094 75.26269531 C-44.97588925 73.89082196 -54.06961347 68.34109546 -60.78125 60.34375 C-70.44063152 47.54638428 -71.41185286 35.77469763 -69.55859375 19.9921875 C-67.06892198 9.75824994 -60.21444725 1.9654952 -51.62109375 -3.7578125 C-35.00892659 -13.52589532 -15.16272661 -11.89868927 0 0 Z " fill="#FE9935" transform="translate(69.55859375,377.0078125)"/>
<path d="M0 0 C9.7795122 8.24374043 14.93507629 17.27151776 16.0625 30.25 C16.49572657 43.12864436 13.26511213 53.05386005 4.875 62.9375 C0.75481896 67.31906148 -3.4403462 70.13108621 -8.875 72.625 C-9.49761719 72.975625 -10.12023437 73.32625 -10.76171875 73.6875 C-19.56284238 77.59188017 -33.74409916 76.86550449 -42.64453125 73.66015625 C-54.53968623 68.13963774 -62.30437099 59.8380168 -66.875 47.625 C-67.308125 46.531875 -67.74125 45.43875 -68.1875 44.3125 C-70.68752231 30.90328941 -68.14730898 19.05291412 -60.875 7.625 C-60.215 7.625 -59.555 7.625 -58.875 7.625 C-58.606875 7.026875 -58.33875 6.42875 -58.0625 5.8125 C-56.87582594 3.62652146 -55.77900887 2.21167406 -53.875 0.625 C-53.215 0.625 -52.555 0.625 -51.875 0.625 C-51.875 -0.035 -51.875 -0.695 -51.875 -1.375 C-34.41362343 -11.14873512 -16.64045498 -12.35512042 0 0 Z " fill="#FE9934" transform="translate(278.875,9.375)"/>
<path d="M0 0 C3.71195302 3.28033058 6.11835585 6.42474257 7.0703125 11.359375 C7.38367928 16.7492836 5.78617225 20.02010926 2.6875 24.375 C-0.97152474 27.76629123 -3.53751198 29.23846246 -8.5625 29.625 C-13.36167021 29.30505532 -17.2423047 28.32781309 -20.828125 24.9453125 C-24.60904759 20.57769502 -25.62232976 17.18552418 -25.52734375 11.43359375 C-25.06133936 6.96842446 -23.12930073 4.14881122 -19.9375 1.125 C-13.185789 -3.37614067 -7.31048795 -3.58627711 0 0 Z " fill="#FC9A35" transform="translate(306.3125,273.625)"/>
<path d="M0 0 C2.24531167 1.8651799 3.51674981 3.79587642 4.73046875 6.4375 C5.06046875 7.0975 5.39046875 7.7575 5.73046875 8.4375 C6.27803384 14.89876809 5.31677429 18.05804169 1.73046875 23.4375 C1.07046875 23.4375 0.41046875 23.4375 -0.26953125 23.4375 C-0.59953125 24.4275 -0.92953125 25.4175 -1.26953125 26.4375 C-6.4509058 29.09461516 -11.74300118 28.8303653 -17.26953125 27.4375 C-21.40293 25.20253074 -24.49782054 21.7683484 -26.26953125 17.4375 C-27.14778595 12.35338112 -26.67652999 8.51543307 -24.01953125 4.0625 C-21.6208487 0.66380332 -19.40981949 -1.75066653 -15.45703125 -3.25 C-9.08047403 -4.16093675 -5.29156475 -3.60276749 0 0 Z " fill="#FC9B37" transform="translate(220.26953125,274.5625)"/>
<path d="M0 0 C4.60669463 2.4569038 7.76568496 5.55480742 10.12890625 10.28125 C10.69599953 16.34478588 10.46296104 21.00232992 7.12890625 26.28125 C6.46890625 26.28125 5.80890625 26.28125 5.12890625 26.28125 C4.79890625 27.27125 4.46890625 28.26125 4.12890625 29.28125 C-0.72659793 31.4777876 -5.72063419 32.34576075 -10.87109375 30.60546875 C-12.5623551 29.88600072 -14.2205143 29.08969708 -15.87109375 28.28125 C-15.87109375 27.62125 -15.87109375 26.96125 -15.87109375 26.28125 C-16.86109375 25.95125 -17.85109375 25.62125 -18.87109375 25.28125 C-21.631623 20.7772286 -21.53457966 15.38435765 -20.87109375 10.28125 C-16.88566721 2.31039692 -9.17146181 -3.52306675 0 0 Z " fill="#FC9D3C" transform="translate(258.87109375,271.71875)"/>
<path d="M0 0 C1.32 0 2.64 0 4 0 C3.98952637 0.93682617 3.97905273 1.87365234 3.96826172 2.83886719 C3.93382258 6.3725845 3.90892965 9.906119 3.89013672 13.43994141 C3.88018616 14.95852504 3.86662084 16.47709007 3.84912109 17.99560547 C3.72151142 29.36787951 3.84988527 40.43043343 8.26953125 51.109375 C9.51197086 54.32510104 10.22135391 57.64583224 11 61 C9 60 9 60 8 57 C7.34 56.67 6.68 56.34 6 56 C5.5859375 53.93359375 5.5859375 53.93359375 5.375 51.4375 C5.30023438 50.61121094 5.22546875 49.78492188 5.1484375 48.93359375 C5.09945312 48.29550781 5.05046875 47.65742188 5 47 C4.34 47 3.68 47 3 47 C2.56873761 42.9802369 2.14163456 38.96005503 1.71826172 34.93945312 C1.57387701 33.57377402 1.4283867 32.20821131 1.28173828 30.84277344 C1.07028218 28.87206015 0.86322484 26.90087647 0.65625 24.9296875 C0.53056641 23.74616699 0.40488281 22.56264648 0.27539062 21.34326172 C0.01726509 18.20959938 -0.05021049 15.14234003 0 12 C-4.71437679 14.03205896 -7.96107506 15.59795872 -11.125 19.6875 C-13.31070719 22.49769495 -13.74595361 22.92943156 -17.375 23.9375 C-18.674375 23.9684375 -18.674375 23.9684375 -20 24 C-19.278125 23.29875 -18.55625 22.5975 -17.8125 21.875 C-15.00736435 19.07778846 -12.52933745 16.04817591 -10 13 C-9.360625 12.401875 -8.72125 11.80375 -8.0625 11.1875 C-5.39315948 8.35638126 -3.54439636 5.16718952 -1.5625 1.828125 C-1.046875 1.22484375 -0.53125 0.6215625 0 0 Z " fill="#F7A049" transform="translate(150,268)"/>
<path d="M0 0 C0 3.61656862 -1.02130767 5.0319615 -3 8 C-5 10 -5 10 -7.328125 10.91015625 C-10.20515823 12.08368296 -12.28105026 13.56158231 -14.75 15.4375 C-18.59953022 18.19122 -21.94358482 19.97356845 -26.5 21.19433594 C-29.04025572 21.94345367 -29.04025572 21.94345367 -31.43505859 23.21704102 C-40.71178173 27.83036194 -49.16163007 27.58546488 -59.25 27.3125 C-60.88147582 27.28735795 -62.51298943 27.26455531 -64.14453125 27.24414062 C-68.09730698 27.18967526 -72.0482232 27.10374212 -76 27 C-76 26.34 -76 25.68 -76 25 C-76.61488281 25.02320312 -77.22976562 25.04640625 -77.86328125 25.0703125 C-79.07564453 25.09738281 -79.07564453 25.09738281 -80.3125 25.125 C-81.51326172 25.15980469 -81.51326172 25.15980469 -82.73828125 25.1953125 C-85 25 -85 25 -88 23 C-90.33199388 22.92094936 -92.66832622 22.91201231 -95 23 C-95.33 21.35 -95.66 19.7 -96 18 C-95.42894531 18.18175781 -94.85789063 18.36351563 -94.26953125 18.55078125 C-69.10493355 26.35220661 -46.21685543 27.16456364 -22 16 C-18.83541393 14.18540356 -15.91519525 12.18639643 -13 10 C-8.3 7 -8.3 7 -6 7 C-6 6.34 -6 5.68 -6 5 C-4.04072937 3.2856382 -2.04119788 1.61594832 0 0 Z " fill="#F9B770" transform="translate(313,80)"/>
<path d="M0 0 C5.22006261 15.66018783 -0.76535445 38.50037502 -5 54 C-5.33 54 -5.66 54 -6 54 C-6.33 49.05 -6.66 44.1 -7 39 C-5.515 38.505 -5.515 38.505 -4 38 C-4.020625 37.195625 -4.04125 36.39125 -4.0625 35.5625 C-4 33 -4 33 -3 32 C-2.91232888 29.92737924 -2.89304127 27.85179706 -2.90234375 25.77734375 C-2.90717773 23.88725586 -2.90717773 23.88725586 -2.91210938 21.95898438 C-2.92046597 20.61848891 -2.92893093 19.27799412 -2.9375 17.9375 C-2.9425134 16.59310058 -2.94707658 15.2486994 -2.95117188 13.90429688 C-2.96300512 10.60282059 -2.97949029 7.30143197 -3 4 C-8.00679273 3.87251222 -10.13147167 3.85682073 -14 7 C-18.14948782 8.48195994 -20.79106697 9.29221628 -25 8 C-6.10139165 -2.03379722 -6.10139165 -2.03379722 0 0 Z " fill="#F9B973" transform="translate(415,278)"/>
<path d="M0 0 C4.25293055 4.25293055 4.15682733 11.19243729 4.3125 16.9375 C4.02049105 29.10966246 -0.95312565 40.20578056 -9.8046875 48.6875 C-21.49073916 57.91492781 -32.42960802 60.35027339 -47 59 C-47.99 58.34 -48.98 57.68 -50 57 C-48.741875 57.020625 -47.48375 57.04125 -46.1875 57.0625 C-36.83029264 57.33255842 -36.83029264 57.33255842 -28 55 C-26.00039988 54.960008 -23.99952758 54.95653201 -22 55 C-21.814375 54.4225 -21.62875 53.845 -21.4375 53.25 C-19.88667917 50.82262826 -18.9116139 50.22359487 -16.4375 48.875 C-12.96468026 47.40524759 -12.96468026 47.40524759 -12 45 C-10.68 45 -9.36 45 -8 45 C-8 44.01 -8 43.02 -8 42 C-7.34 42 -6.68 42 -6 42 C-6 41.01 -6 40.02 -6 39 C-5.34 39 -4.68 39 -4 39 C-3.67 37.35 -3.34 35.7 -3 34 C-2.34 34 -1.68 34 -1 34 C-1.020625 32.88625 -1.04125 31.7725 -1.0625 30.625 C-1 27 -1 27 0 25 C0.66 25 1.32 25 2 25 C1.27848878 12.47658493 1.27848878 12.47658493 0 0 Z " fill="#F7C68E" transform="translate(80,393)"/>
<path d="M0 0 C2 3 2 3 1.609375 5.234375 C1.32578125 6.06453125 1.0421875 6.8946875 0.75 7.75 C0.45867187 8.64074219 0.16734375 9.53148438 -0.1328125 10.44921875 C-0.41898437 11.29097656 -0.70515625 12.13273438 -1 13 C-5.54754698 27.40056544 -4.5961669 42.29499359 -2 57 C-1.63380185 59.66399092 -1.3142024 62.32927964 -1 65 C-1.66 65 -2.32 65 -3 65 C-5.61537297 61.04504575 -5.44264274 56.83172627 -5.625 52.25 C-5.66367187 51.45722656 -5.70234375 50.66445312 -5.7421875 49.84765625 C-5.836108 47.89880584 -5.91912822 45.94943549 -6 44 C-6.66 43.67 -7.32 43.34 -8 43 C-8.24904882 36.46938643 -7.91019029 30.10319237 -7.125 23.625 C-7.04652832 22.94759766 -6.96805664 22.27019531 -6.88720703 21.57226562 C-6.39346894 17.74745387 -5.49467353 14.53779582 -4 11 C-3.56111075 8.79745973 -3.56111075 8.79745973 -3.375 6.6875 C-3.189375 4.8621875 -3.189375 4.8621875 -3 3 C-2.34 3 -1.68 3 -1 3 C-0.67 2.01 -0.34 1.02 0 0 Z " fill="#F9A752" transform="translate(405,116)"/>
<path d="M0 0 C-3 1 -3 1 -5.6875 0.0625 C-10.24071135 -1.39796402 -14.70017799 -1.95825917 -19.25 -0.0625 C-19.8275 0.288125 -20.405 0.63875 -21 1 C-21.721875 1.144375 -22.44375 1.28875 -23.1875 1.4375 C-24.0846875 1.7159375 -24.0846875 1.7159375 -25 2 C-25.33 2.99 -25.66 3.98 -26 5 C-26.66 5 -27.32 5 -28 5 C-28.309375 5.61875 -28.61875 6.2375 -28.9375 6.875 C-29.625 8.25 -30.3125 9.625 -31 11 C-31.66 11 -32.32 11 -33 11 C-33 14.3 -33 17.6 -33 21 C-32.34 21 -31.68 21 -31 21 C-30.67 22.65 -30.34 24.3 -30 26 C-30.66 26.33 -31.32 26.66 -32 27 C-34.48165205 22.0366959 -36.11747446 17.61730464 -35 12 C-33.56803761 8.52450794 -31.86963434 5.25850556 -30 2 C-29.34 2 -28.68 2 -28 2 C-27.67 1.01 -27.34 0.02 -27 -1 C-17.39655691 -6.67476183 -9.29690332 -5.31604844 0 0 Z " fill="#F89D43" transform="translate(38,299)"/>
<path d="M0 0 C0 0.33 0 0.66 0 1 C-0.64960693 0.98952637 -1.29921387 0.97905273 -1.96850586 0.96826172 C-4.95813001 0.92627038 -7.94769179 0.90053833 -10.9375 0.875 C-12.46987305 0.84986328 -12.46987305 0.84986328 -14.03320312 0.82421875 C-23.07326105 0.7664548 -30.50290626 1.21237728 -37.875 6.875 C-38.77992188 7.55304687 -39.68484375 8.23109375 -40.6171875 8.9296875 C-42.7946445 10.82157636 -44.28454925 12.70930829 -46 15 C-46.66 15 -47.32 15 -48 15 C-48.66 16.32 -49.32 17.64 -50 19 C-50.66 19 -51.32 19 -52 19 C-51.34 17.35 -50.68 15.7 -50 14 C-49.34 14 -48.68 14 -48 14 C-47.731875 13.401875 -47.46375 12.80375 -47.1875 12.1875 C-46.00082594 10.00152146 -44.90400887 8.58667406 -43 7 C-42.34 7 -41.68 7 -41 7 C-41 6.34 -41 5.68 -41 5 C-27.68244045 -2.45429771 -14.71538063 -5.33707089 0 0 Z " fill="#F6BB81" transform="translate(268,3)"/>
<path d="M0 0 C1.32 0.33 2.64 0.66 4 1 C7.32271304 13.22082591 7.03500216 24.45490374 6 37 C5.34 37 4.68 37 4 37 C4 40.96 4 44.92 4 49 C3.34 49 2.68 49 2 49 C2 50.65 2 52.3 2 54 C1.34 54 0.68 54 0 54 C0.43222996 50.32604535 0.88321009 46.67755977 1.51171875 43.03125 C3.69010074 30.30084743 3.13065532 18.70617079 1 6 C0.81308594 4.87464844 0.62617187 3.74929688 0.43359375 2.58984375 C0.29050781 1.73519531 0.14742188 0.88054687 0 0 Z " fill="#F8B068" transform="translate(103,395)"/>
<path d="M0 0 C4.87664905 0.3324988 7.41420857 1.73060194 11 5 C3.25 4.125 3.25 4.125 1 3 C1.061875 4.299375 1.061875 4.299375 1.125 5.625 C1 9 1 9 0.01171875 11.6796875 C-1.22141062 15.72663715 -1.34128003 19.29631656 -1.3125 23.5 C-1.31121094 24.28665039 -1.30992187 25.07330078 -1.30859375 25.88378906 C-1.20663255 32.18244205 -0.2488551 37.87938879 1.34375 43.984375 C2.01770625 47.08136442 2.11349693 49.84100209 2 53 C-6.54063028 40.18905458 -4.90789041 20.53236522 -2.15527344 6.11743164 C-1.14585331 1.14585331 -1.14585331 1.14585331 0 0 Z " fill="#F9CC90" transform="translate(325,143)"/>
<path d="M0 0 C0.66 0 1.32 0 2 0 C2 0.99 2 1.98 2 3 C1.34 3 0.68 3 0 3 C0 3.99 0 4.98 0 6 C-0.66 6 -1.32 6 -2 6 C-2.144375 7.010625 -2.28875 8.02125 -2.4375 9.0625 C-2.80375213 11.62626493 -3.17832883 14.18885889 -3.5625 16.75 C-4.06670601 19.94897785 -4.06670601 19.94897785 -4 23 C-4.66 23 -5.32 23 -6 23 C-5.855625 24.12019531 -5.71125 25.24039063 -5.5625 26.39453125 C-5.37490207 27.86717503 -5.18740745 29.33983197 -5 30.8125 C-4.90460938 31.55048828 -4.80921875 32.28847656 -4.7109375 33.04882812 C-4.33015323 36.05430395 -4 38.96714441 -4 42 C-4.66 42.66 -5.32 43.32 -6 44 C-10.44007008 36.59988319 -9.86244017 25.69897355 -8.3125 17.4375 C-6.7320533 11.12708333 -3.58903332 5.38354998 0 0 Z " fill="#F9B773" transform="translate(432,137)"/>
<path d="M0 0 C-1.1875 1.5 -1.1875 1.5 -3 3 C-5.6875 3.1875 -5.6875 3.1875 -8 3 C-8.33 3.99 -8.66 4.98 -9 6 C-9.99 6 -10.98 6 -12 6 C-12.1546875 6.9590625 -12.1546875 6.9590625 -12.3125 7.9375 C-12.539375 8.618125 -12.76625 9.29875 -13 10 C-13.99 10.33 -14.98 10.66 -16 11 C-16 11.66 -16 12.32 -16 13 C-16.66 13 -17.32 13 -18 13 C-17.99476318 13.55872803 -17.98952637 14.11745605 -17.98413086 14.69311523 C-17.96308281 17.27456494 -17.95025266 19.85599649 -17.9375 22.4375 C-17.92912109 23.31599609 -17.92074219 24.19449219 -17.91210938 25.09960938 C-17.86552208 37.72476752 -17.86552208 37.72476752 -19 42 C-21.0625 44.0625 -21.0625 44.0625 -23 45 C-22.86722656 44.07960937 -22.73445313 43.15921875 -22.59765625 42.2109375 C-21.68214258 35.64864241 -20.90695997 29.1861781 -20.5625 22.5625 C-20.22874615 17.11736782 -19.27480956 12.94523818 -17 8 C-16.34 8 -15.68 8 -15 8 C-14.62294922 7.07960938 -14.62294922 7.07960938 -14.23828125 6.140625 C-11.49496798 1.39824117 -5.28467122 -0.6605839 0 0 Z " fill="#F8BD77" transform="translate(392,82)"/>
<path d="M0 0 C0.99 0.495 0.99 0.495 2 1 C2.6328125 3.06640625 2.6328125 3.06640625 3.125 5.5625 C3.29257813 6.38878906 3.46015625 7.21507813 3.6328125 8.06640625 C3.75398438 8.70449219 3.87515625 9.34257812 4 10 C4.66 10 5.32 10 6 10 C8.00965831 17.46105428 8.24055476 24.36033101 8.125 32.0625 C8.11597656 33.21427734 8.10695313 34.36605469 8.09765625 35.55273438 C8.07428714 38.36871193 8.04152565 41.18424158 8 44 C7.34 44 6.68 44 6 44 C6 45.65 6 47.3 6 49 C5.67 49 5.34 49 5 49 C5.01571045 48.0570105 5.01571045 48.0570105 5.03173828 47.0949707 C5.24242595 32.51618443 5.27275858 18.99109239 0.5859375 5.0234375 C0 3 0 3 0 0 Z " fill="#F8BB7A" transform="translate(101,120)"/>
<path d="M0 0 C3.06273018 3.3899808 3.60550995 6.27315343 4.1875 10.75 C4.34605469 11.92046875 4.50460938 13.0909375 4.66796875 14.296875 C4.83232422 15.63492188 4.83232422 15.63492188 5 17 C5.66 17 6.32 17 7 17 C7.66 17.66 8.32 18.32 9 19 C9.99 19.33 10.98 19.66 12 20 C13.25 22.375 13.25 22.375 14 25 C13.67 25.99 13.34 26.98 13 28 C14.32 28.33 15.64 28.66 17 29 C16.67 29.66 16.34 30.32 16 31 C9.57774813 28.45450609 5.11832095 21.64748389 1.75 15.84765625 C-0.44253591 10.69308865 -0.30546531 5.52100262 0 0 Z " fill="#F9B165" transform="translate(0,167)"/>
<path d="M0 0 C0.33 0 0.66 0 1 0 C1 8.25 1 16.5 1 25 C1.66 25 2.32 25 3 25 C3.33 23.02 3.66 21.04 4 19 C4.99 19 5.98 19 7 19 C6.67 17.02 6.34 15.04 6 13 C6.66 13 7.32 13 8 13 C8 13.66 8 14.32 8 15 C8.99 15 9.98 15 11 15 C11 13.68 11 12.36 11 11 C11.99 11 12.98 11 14 11 C14.33 10.01 14.66 9.02 15 8 C16.32 8.33 17.64 8.66 19 9 C18.01 9.33 17.02 9.66 16 10 C15.67 10.99 15.34 11.98 15 13 C14.34 13 13.68 13 13 13 C12.61521484 13.84691406 12.61521484 13.84691406 12.22265625 14.7109375 C10.85942387 17.26318727 9.24554204 19.36777841 7.4375 21.625 C4.9803419 24.66066003 4.9803419 24.66066003 3 28 C1.68 28 0.36 28 -1 28 C-0.67 18.76 -0.34 9.52 0 0 Z " fill="#F9BE7E" transform="translate(354,278)"/>
<path d="M0 0 C2.375 0.75 2.375 0.75 5 2 C5.66 3.32 6.32 4.64 7 6 C14.26 6 21.52 6 29 6 C29 6.99 29 7.98 29 9 C30.051875 9.12375 31.10375 9.2475 32.1875 9.375 C35.45958771 9.91140782 38.00536076 10.63880035 41 12 C37.15503197 13.28165601 35.06606684 12.51808999 31.125 11.625 C26.06035213 10.50663126 21.26605864 9.81975307 16.0625 9.625 C10.41219774 9.28403348 6.12179073 8.01360725 2 4 C0.79296875 1.83203125 0.79296875 1.83203125 0 0 Z " fill="#F7AA5C" transform="translate(7,326)"/>
<path d="M0 0 C0.66 0 1.32 0 2 0 C-0.14265423 13.09399809 -6.31165342 25.6567602 -13 37 C-13.33 37 -13.66 37 -14 37 C-14.37086093 29.45916115 -14.37086093 29.45916115 -12.6875 27.375 C-12.130625 26.92125 -11.57375 26.4675 -11 26 C-9.95377125 24.02379014 -8.94560065 22.0262871 -8 20 C-7.34 20 -6.68 20 -6 20 C-6 18.02 -6 16.04 -6 14 C-5.34 14 -4.68 14 -4 14 C-4 12.68 -4 11.36 -4 10 C-3.34 10 -2.68 10 -2 10 C-2.33 8.02 -2.66 6.04 -3 4 C-2.34 3.67 -1.68 3.34 -1 3 C-0.67 2.01 -0.34 1.02 0 0 Z " fill="#F8BC7C" transform="translate(407,332)"/>
<path d="M0 0 C0.33 0 0.66 0 1 0 C1.08636719 0.62003906 1.17273438 1.24007812 1.26171875 1.87890625 C2.31847159 8.53935762 4.09261512 14.70546723 6.32299805 21.04711914 C8 25.8275457 8 25.8275457 8 28 C8.66 28 9.32 28 10 28 C9.67 29.65 9.34 31.3 9 33 C5.18315774 31.44499019 2.80804268 28.96404505 0 26 C1.32 25.34 2.64 24.68 4 24 C3.34 23.01 2.68 22.02 2 21 C1.62109375 18.7734375 1.62109375 18.7734375 1.4375 16.375 C1.41022777 13.38885578 1.41022777 13.38885578 0 11 C-0.07226502 9.14712498 -0.0838122 7.29166122 -0.0625 5.4375 C-0.05347656 4.42558594 -0.04445313 3.41367188 -0.03515625 2.37109375 C-0.02355469 1.58863281 -0.01195312 0.80617187 0 0 Z " fill="#F8BD77" transform="translate(310,178)"/>
<path d="M0 0 C0 3.61029169 -0.96092582 6.55806676 -2 10 C-2.66 10 -3.32 10 -4 10 C-4 15.28 -4 20.56 -4 26 C-3.01 26 -2.02 26 -1 26 C-0.67 27.65 -0.34 29.3 0 31 C0.99 31.33 1.98 31.66 3 32 C2.67 32.66 2.34 33.32 2 34 C-3.67282964 28.48049008 -7.78904463 24.17322043 -8.07421875 15.828125 C-7.71997164 9.95774425 -5.72290612 5.54635264 -2 1 C-1.34 0.67 -0.68 0.34 0 0 Z " fill="#F8B773" transform="translate(149,59)"/>
<path d="M0 0 C6.04168095 6.90477823 7.28255774 16.14251613 7.234375 24.99609375 C6.85505678 29.85768897 5.50177544 34.37846487 4 39 C3.67 39 3.34 39 3 39 C3.00785522 37.86570557 3.00785522 37.86570557 3.01586914 36.70849609 C3.03672724 33.26400593 3.04968826 29.8195291 3.0625 26.375 C3.07087891 25.18519531 3.07925781 23.99539062 3.08789062 22.76953125 C3.09272461 21.03896484 3.09272461 21.03896484 3.09765625 19.2734375 C3.10551147 17.68668213 3.10551147 17.68668213 3.11352539 16.06787109 C2.99875578 12.96637654 2.57696282 10.04652343 2 7 C1.34 7 0.68 7 0 7 C0 4.69 0 2.38 0 0 Z " fill="#F6C087" transform="translate(77,142)"/>
<path d="M0 0 C0 0.66 0 1.32 0 2 C-4.38461538 5 -4.38461538 5 -7 5 C-7 5.66 -7 6.32 -7 7 C-10.63 7.66 -14.26 8.32 -18 9 C-18 9.66 -18 10.32 -18 11 C-25.10706874 14.99164135 -34.0696565 14.15185764 -42 14 C-42 13.67 -42 13.34 -42 13 C-40.09541016 12.67128906 -40.09541016 12.67128906 -38.15234375 12.3359375 C-26.24354037 10.17946282 -14.70265624 7.65616387 -4.21484375 1.31640625 C-2 0 -2 0 0 0 Z " fill="#F8BD7D" transform="translate(306,374)"/>
<path d="M0 0 C2.48002593 2.48002593 2.29694693 3.32832513 2.3125 6.75 C2.24180906 11.18424975 1.40454652 14.19280134 -1 18 C-1.66 18 -2.32 18 -3 18 C-3.33 18.99 -3.66 19.98 -4 21 C-5.32 20.34 -6.64 19.68 -8 19 C-6.68 18.67 -5.36 18.34 -4 18 C-4 17.34 -4 16.68 -4 16 C-5.65 16.33 -7.3 16.66 -9 17 C-9 16.01 -9 15.02 -9 14 C-8.0409375 13.5978125 -8.0409375 13.5978125 -7.0625 13.1875 C-4.66868314 12.11332248 -4.66868314 12.11332248 -4 9 C-3.34 9 -2.68 9 -2 9 C-1.34 6.03 -0.68 3.06 0 0 Z " fill="#F9AC5C" transform="translate(267,280)"/>
<path d="M0 0 C0 0.99 0 1.98 0 3 C-0.495 2.01 -0.495 2.01 -1 1 C-5.49998618 0.97077347 -9.99994765 0.95312518 -14.5 0.9375 C-15.7684375 0.92912109 -17.036875 0.92074219 -18.34375 0.91210938 C-24.66083499 0.89565863 -30.75810372 0.99908986 -37 2 C-27.28618452 -6.54815763 -11.21090404 -3.91565879 0 0 Z " fill="#F9BC77" transform="translate(59,125)"/>
<path d="M0 0 C1.23835796 3.71507388 0.49086092 4.49725065 -1 8 C-2.45084597 14.36286045 -3.08802108 20.74270255 -3.4375 27.25 C-3.76816432 32.77331886 -4.69363216 36.98615687 -7 42 C-7.33 42 -7.66 42 -8 42 C-8 40.35 -8 38.7 -8 37 C-7.34 37 -6.68 37 -6 37 C-6.01571045 35.97845825 -6.01571045 35.97845825 -6.03173828 34.9362793 C-6.07328878 31.85339034 -6.09932311 28.77056029 -6.125 25.6875 C-6.14175781 24.61564453 -6.15851563 23.54378906 -6.17578125 22.43945312 C-6.18222656 21.41142578 -6.18867188 20.38339844 -6.1953125 19.32421875 C-6.20578613 18.37635498 -6.21625977 17.42849121 -6.22705078 16.4519043 C-6 14 -6 14 -4 11 C-3.40309127 8.4051051 -2.98903834 5.80746836 -2.5625 3.1796875 C-2.376875 2.46039063 -2.19125 1.74109375 -2 1 C-1.34 0.67 -0.68 0.34 0 0 Z " fill="#FABB73" transform="translate(139,442)"/>
<path d="M0 0 C3.89006773 1.38780795 6.96558708 3.2152227 10.3125 5.625 C11.19550781 6.25664062 12.07851563 6.88828125 12.98828125 7.5390625 C13.65214844 8.02117187 14.31601562 8.50328125 15 9 C16.98 7.35 18.96 5.7 21 4 C24 7.75 24 7.75 24 10 C20.09971775 12.60018816 16.52565431 12.15085514 12 12 C11.67 11.01 11.34 10.02 11 9 C10.01 8.67 9.02 8.34 8 8 C7.67 7.34 7.34 6.68 7 6 C6.195625 5.896875 5.39125 5.79375 4.5625 5.6875 C3.716875 5.460625 2.87125 5.23375 2 5 C0.6875 2.4375 0.6875 2.4375 0 0 Z " fill="#F9AB55" transform="translate(336,148)"/>
<path d="M0 0 C4.12493872 -0.05875981 8.24976768 -0.09384938 12.375 -0.125 C13.53128906 -0.14175781 14.68757813 -0.15851563 15.87890625 -0.17578125 C22.84367123 -0.2151302 29.24033792 0.2864189 36 2 C36.495 3.485 36.495 3.485 37 5 C36.30487305 4.8570752 35.60974609 4.71415039 34.89355469 4.56689453 C26.61494937 3.00938499 18.6568112 2.7609201 10.25 2.875 C8.96867187 2.88402344 7.68734375 2.89304687 6.3671875 2.90234375 C3.24458779 2.92564673 0.12239975 2.95835946 -3 3 C-2.01 2.67 -1.02 2.34 0 2 C0 1.34 0 0.68 0 0 Z " fill="#F7B26F" transform="translate(416,263)"/>
<path d="M0 0 C2.24531167 1.8651799 3.51674981 3.79587642 4.73046875 6.4375 C5.06046875 7.0975 5.39046875 7.7575 5.73046875 8.4375 C6.20571627 15.80383663 6.20571627 15.80383663 2.73046875 20.4375 C2.73046875 15.4875 2.73046875 10.5375 2.73046875 5.4375 C1.08046875 4.7775 -0.56953125 4.1175 -2.26953125 3.4375 C-2.59953125 2.4475 -2.92953125 1.4575 -3.26953125 0.4375 C-6.554726 -0.65756492 -9.0061654 -0.66210608 -12.45703125 -0.625 C-13.54371094 -0.61597656 -14.63039062 -0.60695313 -15.75 -0.59765625 C-16.58144531 -0.58605469 -17.41289062 -0.57445312 -18.26953125 -0.5625 C-17.26953125 -2.5625 -17.26953125 -2.5625 -15.64453125 -3.1875 C-9.21226513 -4.20312097 -5.34517428 -3.6392676 0 0 Z " fill="#F6C990" transform="translate(220.26953125,274.5625)"/>
<path d="M0 0 C6.34295314 6.34295314 6 16.61752619 6 25 C5.39977815 31.90255125 3.06792265 37.83436905 0 44 C-0.33 44 -0.66 44 -1 44 C-0.36781609 37.55172414 -0.36781609 37.55172414 1.5234375 34.71484375 C5.21983206 27.91856274 3.45827976 17.26945144 1.51171875 10.0078125 C0.67140691 6.71071109 0.36855723 3.37844124 0 0 Z " fill="#F8BD78" transform="translate(289,22)"/>
<path d="M0 0 C2 2 2 2 2.375 5.6875 C2.24488425 10.46708518 0.76228121 13.11787506 -2 17 C-5.74020129 20.46652803 -8.28772646 21.90660326 -13.4375 22.1875 C-16.8015258 22.01044601 -18.16621136 21.57571105 -21 20 C-20.25234375 19.93941406 -19.5046875 19.87882812 -18.734375 19.81640625 C-17.25710938 19.69072266 -17.25710938 19.69072266 -15.75 19.5625 C-14.77546875 19.48128906 -13.8009375 19.40007812 -12.796875 19.31640625 C-10.43538247 19.04925416 -8.28098935 18.64628032 -6 18 C-6 17.34 -6 16.68 -6 16 C-5.01 16 -4.02 16 -3 16 C-3 14.35 -3 12.7 -3 11 C-2.34 11 -1.68 11 -1 11 C-0.67 7.37 -0.34 3.74 0 0 Z " fill="#F8C389" transform="translate(311,281)"/>
<path d="M0 0 C-1.75 0.625 -1.75 0.625 -4 1 C-4.91519409 0.52590698 -4.91519409 0.52590698 -5.84887695 0.04223633 C-9.72833261 -1.83739098 -13.9489773 -1.32722732 -18.1875 -1.3125 C-19.09564453 -1.32861328 -20.00378906 -1.34472656 -20.93945312 -1.36132812 C-26.85307937 -1.36556121 -32.72863013 -0.93294837 -38 2 C-38.33 2.99 -38.66 3.98 -39 5 C-40.65 5 -42.3 5 -44 5 C-39.84236959 -0.29152962 -33.37239922 -2.1389619 -27.0625 -3.75 C-17.29616063 -4.54725219 -9.07549938 -3.97053098 0 0 Z " fill="#F7C581" transform="translate(60,371)"/>
<path d="M0 0 C4.45911832 4.45911832 4.13075113 11.81985145 4.1953125 17.78515625 C4.18216421 20.21101509 4.15852857 22.63683724 4.125 25.0625 C4.11597656 26.30966797 4.10695313 27.55683594 4.09765625 28.84179688 C4.07426209 31.89473504 4.04148174 34.94726306 4 38 C3.34 38 2.68 38 2 38 C1.97494385 37.26362305 1.9498877 36.52724609 1.92407227 35.76855469 C1.80795727 32.42886622 1.68530082 29.08944903 1.5625 25.75 C1.52318359 24.59113281 1.48386719 23.43226563 1.44335938 22.23828125 C1.40146484 21.12324219 1.35957031 20.00820313 1.31640625 18.859375 C1.26141968 17.31975098 1.26141968 17.31975098 1.20532227 15.74902344 C1.02651437 13.35499619 0.62898965 11.30376932 0 9 C-0.06548492 7.41788427 -0.08578381 5.83329919 -0.0625 4.25 C-0.05347656 3.45078125 -0.04445313 2.6515625 -0.03515625 1.828125 C-0.02355469 1.22484375 -0.01195312 0.6215625 0 0 Z " fill="#F6AB60" transform="translate(353,265)"/>
<path d="M0 0 C-0.54527344 0.35191406 -1.09054687 0.70382813 -1.65234375 1.06640625 C-10.56284612 6.90011977 -18.18099664 12.78319539 -25 21 C-25.66 21.66 -26.32 22.32 -27 23 C-27.33 22.01 -27.66 21.02 -28 20 C-27.01 19.67 -26.02 19.34 -25 19 C-25 17.68 -25 16.36 -25 15 C-24.01 14.67 -23.02 14.34 -22 14 C-21.67 13.01 -21.34 12.02 -21 11 C-20.01 10.67 -19.02 10.34 -18 10 C-17.67 9.34 -17.34 8.68 -17 8 C-16.01 8 -15.02 8 -14 8 C-14 7.34 -14 6.68 -14 6 C-13.34 5.34 -12.68 4.68 -12 4 C-11.01 4 -10.02 4 -9 4 C-9 3.34 -9 2.68 -9 2 C-8.34 2 -7.68 2 -7 2 C-7 1.34 -7 0.68 -7 0 C-3.98968256 -0.93423645 -3.13349732 -1.04449911 0 0 Z " fill="#FAB76B" transform="translate(354,93)"/>
<path d="M0 0 C0.33 0 0.66 0 1 0 C1 2.97 1 5.94 1 9 C-10.33300015 15.18163644 -24.7251726 11.43805509 -37 10 C-37 9.67 -37 9.34 -37 9 C-35.52406372 9.0314209 -35.52406372 9.0314209 -34.01831055 9.06347656 C-30.36757969 9.13587842 -26.71691225 9.1817995 -23.06567383 9.21972656 C-21.48548715 9.23984186 -19.90537491 9.26713804 -18.32543945 9.30175781 C-16.05401252 9.35028343 -13.78356942 9.37296809 -11.51171875 9.390625 C-10.80536789 9.41127014 -10.09901703 9.43191528 -9.3712616 9.45318604 C-6.13424801 9.45466679 -4.45915043 9.44151989 -2.07348633 7.14746094 C-0.88294224 4.76583123 -0.36532339 2.63032842 0 0 Z " fill="#F7C389" transform="translate(305,475)"/>
<path d="M0 0 C0.33 0 0.66 0 1 0 C1.21253272 7.29695685 1.32691389 13.34617221 -2 20 C-2.66 20 -3.32 20 -4 20 C-4.144375 20.61875 -4.28875 21.2375 -4.4375 21.875 C-5 24 -5 24 -6 26 C-6.99 26 -7.98 26 -9 26 C-8.7215625 25.31679687 -8.443125 24.63359375 -8.15625 23.9296875 C-6.87451368 20.6820448 -5.67930336 17.41122948 -4.5 14.125 C-4.0771875 12.95195312 -3.654375 11.77890625 -3.21875 10.5703125 C-2.02273104 7.06659029 -0.98531354 3.56719996 0 0 Z " fill="#FAB169" transform="translate(105,169)"/>
<path d="M0 0 C1.32 0 2.64 0 4 0 C3.67 9.9 3.34 19.8 3 30 C2.67 30 2.34 30 2 30 C1.97494385 29.34402832 1.9498877 28.68805664 1.92407227 28.01220703 C1.8082674 25.04959817 1.68547114 22.08731969 1.5625 19.125 C1.52318359 18.09246094 1.48386719 17.05992187 1.44335938 15.99609375 C1.38051758 14.51689453 1.38051758 14.51689453 1.31640625 13.0078125 C1.27974854 12.09660645 1.24309082 11.18540039 1.20532227 10.24658203 C1.13422935 7.96516519 1.13422935 7.96516519 0 6 C-0.99 7.32 -1.98 8.64 -3 10 C-3.99 9.67 -4.98 9.34 -6 9 C-5.10085301 7.48943306 -4.18003899 5.99174571 -3.25 4.5 C-2.73953125 3.6646875 -2.2290625 2.829375 -1.703125 1.96875 C-0.86007813 0.99421875 -0.86007813 0.99421875 0 0 Z " fill="#F8D2A7" transform="translate(150,268)"/>
<path d="M0 0 C1.60748002 4.92212875 0.96891749 10.06962408 0.83984375 15.17578125 C1.00442567 19.10567646 1.80546717 22.26764836 3 26 C3.36270588 27.99488234 3.70640699 29.9937811 4 32 C3.01 32.495 3.01 32.495 2 33 C-2.3918054 22.29497435 -4.22140154 11.08117904 0 0 Z " fill="#F7BA74" transform="translate(212,29)"/>
<path d="M0 0 C0.66 0 1.32 0 2 0 C1.87882812 0.59425781 1.75765625 1.18851563 1.6328125 1.80078125 C1.2752444 3.56936806 0.92285298 5.33900543 0.57421875 7.109375 C0.21567953 8.91426631 -0.15473201 10.71688788 -0.54296875 12.515625 C-2.26383275 20.95174026 -2.61777573 29.42007096 -3 38 C-3.33 38 -3.66 38 -4 38 C-4.19665429 34.06290089 -4.38075477 30.12531328 -4.5625 26.1875 C-4.61857422 25.06794922 -4.67464844 23.94839844 -4.73242188 22.79492188 C-4.80493164 21.18520508 -4.80493164 21.18520508 -4.87890625 19.54296875 C-4.94960327 18.0583313 -4.94960327 18.0583313 -5.02172852 16.54370117 C-5 14 -5 14 -4 11 C-3.34 11 -2.68 11 -2 11 C-2.02320313 10.37351563 -2.04640625 9.74703125 -2.0703125 9.1015625 C-2.08835937 8.28429687 -2.10640625 7.46703125 -2.125 6.625 C-2.14820313 5.81289062 -2.17140625 5.00078125 -2.1953125 4.1640625 C-2 2 -2 2 0 0 Z " fill="#FAC683" transform="translate(313,137)"/>
<path d="M0 0 C0.33 0 0.66 0 1 0 C1.12117187 1.25554687 1.24234375 2.51109375 1.3671875 3.8046875 C2.57073433 15.960389 4.27617165 27.33200449 8 39 C7.34 39 6.68 39 6 39 C2.89206839 34.09174216 1.39926143 30.43591129 0.75 24.5625 C0.67410645 23.88380859 0.59821289 23.20511719 0.52001953 22.50585938 C-0.23854979 15.01305222 -0.18000663 7.52027696 0 0 Z " fill="#FAC383" transform="translate(134,98)"/>
<path d="M0 0 C0.56976563 0.46019531 1.13953125 0.92039062 1.7265625 1.39453125 C-5.84707004 0.637168 -5.84707004 0.637168 -8.0546875 -0.61914062 C-10.8200683 -1.84846924 -12.89365393 -1.83291326 -15.9140625 -1.80078125 C-17.51894531 -1.79111328 -17.51894531 -1.79111328 -19.15625 -1.78125 C-20.26742188 -1.76449219 -21.37859375 -1.74773437 -22.5234375 -1.73046875 C-23.65007812 -1.72144531 -24.77671875 -1.71242188 -25.9375 -1.703125 C-28.71636115 -1.67957533 -31.4947914 -1.64668555 -34.2734375 -1.60546875 C-25.25715151 -7.61632608 -8.7511681 -6.17994861 0 0 Z " fill="#F8C180" transform="translate(485.2734375,126.60546875)"/>
<path d="M0 0 C0.99 0.33 1.98 0.66 3 1 C-1.91466066 9.02780583 -7.26499571 16.54839579 -13 24 C-14.09658936 20.71023192 -13.79953138 19.28696233 -13 16 C-12.34 16 -11.68 16 -11 16 C-10.67 15.01 -10.34 14.02 -10 13 C-9.34 13 -8.68 13 -8 13 C-7.67 12.01 -7.34 11.02 -7 10 C-6.34 10 -5.68 10 -5 10 C-4.34 8.02 -3.68 6.04 -3 4 C-2.34 4 -1.68 4 -1 4 C-0.67 2.68 -0.34 1.36 0 0 Z " fill="#F8B76D" transform="translate(390,369)"/>
<path d="M0 0 C1.23556641 0.24363281 1.23556641 0.24363281 2.49609375 0.4921875 C6.37293352 1.05404834 10.15595256 1.14986267 14.0625 1.125 C14.80040771 1.12306641 15.53831543 1.12113281 16.29858398 1.11914062 C22.898144 1.06789849 29.43019382 0.63984199 36 0 C29.64362999 5.6229427 19.99305324 4.45450692 11.94726562 4.15820312 C7.75790083 3.8178435 3.87708838 2.56574723 0 1 C0 0.67 0 0.34 0 0 Z " fill="#F8BF7B" transform="translate(234,81)"/>
<path d="M0 0 C0.66 0.33 1.32 0.66 2 1 C2 1.66 2 2.32 2 3 C-1.89560349 6.69967077 -5.62538063 8.51139824 -11 9 C-14.11332248 9.66868314 -14.11332248 9.66868314 -15.1875 12.0625 C-15.455625 12.701875 -15.72375 13.34125 -16 14 C-18.64 13.67 -21.28 13.34 -24 13 C-21.42383084 11.70520665 -18.83868789 10.42965797 -16.25 9.16015625 C-14.83327934 8.4610469 -13.41661424 7.76182496 -12 7.0625 C-11.2884375 6.71509766 -10.576875 6.36769531 -9.84375 6.00976562 C-6.30842071 4.25859039 -3.05439167 2.53737225 0 0 Z " fill="#F8BE82" transform="translate(128,292)"/>
<path d="M0 0 C1.35658502 2.71317004 0.41228778 4.14240265 -0.453125 6.9140625 C-1.40575283 10.54765722 -1.67822534 14.26572036 -2 18 C-1.34 18 -0.68 18 0 18 C3 22.38461538 3 22.38461538 3 25 C3.99 25 4.98 25 6 25 C5.67 25.99 5.34 26.98 5 28 C0.23958596 26.1588997 -0.94883788 23.03598766 -3.015625 18.58984375 C-5.49977782 12.05415598 -3.62708968 7.09484805 -1 1 C-0.67 0.67 -0.34 0.34 0 0 Z " fill="#F6B877" transform="translate(7,247)"/>
<path d="M0 0 C0.66 0 1.32 0 2 0 C0.20648082 7.94775164 -4.0661008 14.45648891 -10 20 C-12.21875 21.2265625 -12.21875 21.2265625 -14 22 C-14 20.68 -14 19.36 -14 18 C-11 16 -11 16 -8 16 C-6.99782936 12.41672247 -6.99782936 12.41672247 -8 9 C-6.35 8.67 -4.7 8.34 -3 8 C-3 7.01 -3 6.02 -3 5 C-2.34 5 -1.68 5 -1 5 C-0.67 3.35 -0.34 1.7 0 0 Z " fill="#F9AF64" transform="translate(504,177)"/>
<path d="M0 0 C0.66 0 1.32 0 2 0 C0.15188783 4.53627533 -2.90377922 7.98524655 -7.33203125 10.12890625 C-13.09919759 12.01189028 -19.59284755 11.90421928 -25.1875 9.5 C-26.115625 9.005 -27.04375 8.51 -28 8 C-26.68 7.67 -25.36 7.34 -24 7 C-24 7.66 -24 8.32 -24 9 C-16.08 8.505 -16.08 8.505 -8 8 C-7.67 7.01 -7.34 6.02 -7 5 C-5.35 5 -3.7 5 -2 5 C-1.855625 4.360625 -1.71125 3.72125 -1.5625 3.0625 C-1 1 -1 1 0 0 Z " fill="#F8B879" transform="translate(499,268)"/>
<path d="M0 0 C0 0.99 0 1.98 0 3 C-3.08652831 4.80519431 -5.19536687 5.2040061 -8.75 5.0625 C-11.92521789 4.99276608 -14.91976325 5.04024092 -18.0625 5.5 C-22.34150083 6.04336519 -26.69731772 6.52667688 -31 6 C-31.66 5.34 -32.32 4.68 -33 4 C-32.27409668 3.9498877 -31.54819336 3.89977539 -30.80029297 3.84814453 C-27.49123877 3.61514231 -24.18317287 3.37018538 -20.875 3.125 C-19.16183594 3.00705078 -19.16183594 3.00705078 -17.4140625 2.88671875 C-16.30546875 2.80292969 -15.196875 2.71914063 -14.0546875 2.6328125 C-13.03874512 2.55949707 -12.02280273 2.48618164 -10.97607422 2.41064453 C-7.21976956 1.89234228 -3.75125793 0 0 0 Z " fill="#F7C68A" transform="translate(103,305)"/>
<path d="M0 0 C-1 2 -1 2 -3.19018555 3.11279297 C-6.27814472 4.087825 -8.7242057 4.22846969 -11.95703125 4.1953125 C-13.06884766 4.18886719 -14.18066406 4.18242188 -15.32617188 4.17578125 C-16.47666016 4.15902344 -17.62714844 4.14226562 -18.8125 4.125 C-19.98232422 4.11597656 -21.15214844 4.10695313 -22.35742188 4.09765625 C-25.23849053 4.07413732 -28.11913989 4.04126852 -31 4 C-31 3.67 -31 3.34 -31 3 C-27.3344862 2.49130173 -23.66743573 1.99463592 -20 1.5 C-18.97003906 1.35691406 -17.94007813 1.21382813 -16.87890625 1.06640625 C-11.19367468 0.30596126 -5.73533461 -0.16544234 0 0 Z " fill="#F9B569" transform="translate(278,103)"/>
<path d="M0 0 C3.39311942 2.93042132 4.69629129 5.75415404 5.296875 10.1953125 C5.69285425 17.21294472 3.55160512 22.03837712 0 28 C-0.33 28 -0.66 28 -1 28 C-0.88637738 26.5199159 -0.75877092 25.04089926 -0.625 23.5625 C-0.55539062 22.73878906 -0.48578125 21.91507813 -0.4140625 21.06640625 C-0.20910156 20.04353516 -0.20910156 20.04353516 0 19 C0.66 18.67 1.32 18.34 2 18 C2.4683265 15.41394668 2.4683265 15.41394668 2.625 12.4375 C2.69976562 11.42558594 2.77453125 10.41367188 2.8515625 9.37109375 C2.90054687 8.58863281 2.94953125 7.80617188 3 7 C2.34 7 1.68 7 1 7 C0.67 4.69 0.34 2.38 0 0 Z " fill="#F8CB8A" transform="translate(408,89)"/>
<path d="M0 0 C2.97 0 5.94 0 9 0 C9.33 1.32 9.66 2.64 10 4 C3.4 6.97 -3.2 9.94 -10 13 C-10 12.01 -10 11.02 -10 10 C-7.09399739 8.74335022 -5.20395416 8 -2 8 C-1.67 7.01 -1.34 6.02 -1 5 C0.98 5 2.96 5 5 5 C4.67 4.01 4.34 3.02 4 2 C2.68 1.34 1.36 0.68 0 0 Z " fill="#FABC80" transform="translate(210,188)"/>
<path d="M0 0 C2 3 2 3 1.609375 5.234375 C1.32578125 6.06453125 1.0421875 6.8946875 0.75 7.75 C0.45867187 8.64074219 0.16734375 9.53148438 -0.1328125 10.44921875 C-0.41898437 11.29097656 -0.70515625 12.13273438 -1 13 C-2.69007411 18.35190134 -3.52031001 23.43307147 -4 29 C-4.33 29 -4.66 29 -5 29 C-5.38064163 20.20294908 -4.20731692 11.68836995 -3 3 C-2.34 3 -1.68 3 -1 3 C-0.67 2.01 -0.34 1.02 0 0 Z " fill="#F9C07F" transform="translate(405,116)"/>
<path d="M0 0 C-1.41328129 0.81837442 -2.83078346 1.62946219 -4.25 2.4375 C-5.43335938 3.11619141 -5.43335938 3.11619141 -6.640625 3.80859375 C-10.61686679 5.81646419 -14.00384122 6.15675341 -18.4375 6.1875 C-19.36433594 6.20167969 -20.29117187 6.21585937 -21.24609375 6.23046875 C-24.21471828 5.98203067 -26.34404517 5.33500375 -29 4 C-29.33 3.34 -29.66 2.68 -30 2 C-29.01 2.33 -28.02 2.66 -27 3 C-24.60745424 3.22560676 -22.21071877 3.40848595 -19.8125 3.5625 C-17.90404297 3.68818359 -17.90404297 3.68818359 -15.95703125 3.81640625 C-14.98121094 3.87699219 -14.00539063 3.93757813 -13 4 C-13 3.34 -13 2.68 -13 2 C-11.39935157 1.46845258 -9.79431126 0.95011647 -8.1875 0.4375 C-7.29417969 0.14746094 -6.40085937 -0.14257812 -5.48046875 -0.44140625 C-3 -1 -3 -1 0 0 Z " fill="#F8BB77" transform="translate(42,273)"/>
<path d="M0 0 C0.66 0.33 1.32 0.66 2 1 C2.34375 2.92578125 2.34375 2.92578125 2.5 5.3125 C2.72437865 8.70622701 3.31526681 11.03133709 5 14 C4 15 4 15 1.375 15.3125 C-3.02066759 14.90549374 -5.30382522 13.36555186 -9 11 C-6.94017141 10.48504285 -4.88244533 9.97313036 -2.8125 9.5 C-0.99436859 9.15890376 -0.99436859 9.15890376 0 8 C0.07148199 6.64756083 0.08399454 5.29165633 0.0625 3.9375 C0.041875 2.638125 0.02125 1.33875 0 0 Z " fill="#FA9B38" transform="translate(310,189)"/>
<path d="M0 0 C0.99 0.66 1.98 1.32 3 2 C2.62488281 2.52207031 2.24976563 3.04414062 1.86328125 3.58203125 C-2.20601937 9.43485405 -5.22914324 15.44067093 -8 22 C-8.33 22 -8.66 22 -9 22 C-8.91276622 20.22825181 -8.80458345 18.45752623 -8.6875 16.6875 C-8.62949219 15.70136719 -8.57148438 14.71523437 -8.51171875 13.69921875 C-7.95137285 10.74350106 -7.41023796 9.74370302 -5 8 C-4.34 8 -3.68 8 -3 8 C-2.67 6.02 -2.34 4.04 -2 2 C-1.34 2 -0.68 2 0 2 C0 1.34 0 0.68 0 0 Z " fill="#FAB86D" transform="translate(324,115)"/>
<path d="M0 0 C-17.75885545 9.39948097 -17.75885545 9.39948097 -26 9 C-22.24532309 5.94063363 -18.91886939 4 -14 4 C-14 3.34 -14 2.68 -14 2 C-11.69 2 -9.38 2 -7 2 C-7 1.34 -7 0.68 -7 0 C-3.98968256 -0.93423645 -3.13349732 -1.04449911 0 0 Z " fill="#F7BD78" transform="translate(324,433)"/>
<path d="M0 0 C3.12290635 0.48578543 5.99580359 0.9986012 9 2 C9.33 3.65 9.66 5.3 10 7 C11.65 7.33 13.3 7.66 15 8 C15 8.66 15 9.32 15 10 C15.99 10.33 16.98 10.66 18 11 C18.33 11.99 18.66 12.98 19 14 C14.11576376 12.4404064 10.62202313 9.60213704 6.6875 6.4375 C6.04232422 5.93025391 5.39714844 5.42300781 4.73242188 4.90039062 C3.13204595 3.62855748 1.56291996 2.31759017 0 1 C0 0.67 0 0.34 0 0 Z " fill="#F8BF78" transform="translate(181,443)"/>
<path d="M0 0 C1.32 0.33 2.64 0.66 4 1 C2.56328432 1.64757625 1.12559584 2.29299453 -0.3125 2.9375 C-1.11300781 3.29714844 -1.91351563 3.65679687 -2.73828125 4.02734375 C-7.39479896 6.02988764 -11.50567737 6.18333112 -16.5 6.1875 C-17.65822266 6.20586914 -17.65822266 6.20586914 -18.83984375 6.22460938 C-22.7482648 6.23476991 -24.67641928 6.21572048 -28 4 C-26.1128125 4.0309375 -26.1128125 4.0309375 -24.1875 4.0625 C-14.83029264 4.33255842 -14.83029264 4.33255842 -6 2 C-4.00039988 1.960008 -1.99952758 1.95653201 0 2 C0 1.34 0 0.68 0 0 Z " fill="#F6D19C" transform="translate(58,446)"/>
<path d="M0 0 C0.66 0.33 1.32 0.66 2 1 C3.68318667 7.49229143 3.194107 13.13327285 0 19 C-3.2293578 23.74311927 -3.2293578 23.74311927 -7 25 C-7.33 24.34 -7.66 23.68 -8 23 C-7.34 23 -6.68 23 -6 23 C-6 22.01 -6 21.02 -6 20 C-5.34 20 -4.68 20 -4 20 C-3.67 19.01 -3.34 18.02 -3 17 C-2.34 17 -1.68 17 -1 17 C-0.09586327 13.16275828 0.10576898 9.62497726 0.0625 5.6875 C0.05347656 4.61886719 0.04445313 3.55023438 0.03515625 2.44921875 C0.02355469 1.64097656 0.01195312 0.83273438 0 0 Z " fill="#F9C489" transform="translate(361,67)"/>
<path d="M0 0 C2.79224073 -0.08071788 5.58216566 -0.14035408 8.375 -0.1875 C9.1690625 -0.21263672 9.963125 -0.23777344 10.78125 -0.26367188 C12.85586148 -0.29004405 14.93100865 -0.15486462 17 0 C17.66 0.99 18.32 1.98 19 3 C20.64551962 3.71727778 22.31422289 4.38325228 24 5 C24.99 5.66 25.98 6.32 27 7 C27 7.66 27 8.32 27 9 C22.7748381 7.6490979 18.65578203 6.30360279 14.625 4.4375 C9.85219828 2.54483725 5.05803419 1.77745553 0 1 C0 0.67 0 0.34 0 0 Z " fill="#F7BA72" transform="translate(270,188)"/>
<path d="M0 0 C0.58265625 0.18175781 1.1653125 0.36351562 1.765625 0.55078125 C8.45691206 2.60235511 15.19880965 4.35228894 22 6 C18.85388747 8.09740836 18.08811922 8.25328219 14.5 8.1875 C13.7265625 8.18105469 12.953125 8.17460937 12.15625 8.16796875 C10 8 10 8 7 7 C7 6.01 7 5.02 7 4 C5.35 4 3.7 4 2 4 C2 3.34 2 2.68 2 2 C1.34 2 0.68 2 0 2 C0 1.34 0 0.68 0 0 Z " fill="#F8B064" transform="translate(185,181)"/>
<path d="M0 0 C3.22064378 -0.08946233 5.89752377 0.17267301 9 1 C9.99 1 10.98 1 12 1 C12 1.66 12 2.32 12 3 C12.8971875 3.433125 12.8971875 3.433125 13.8125 3.875 C16 5 16 5 19 7 C19 7.66 19 8.32 19 9 C12.2813095 7.00386732 6.19265192 4.2708579 0 1 C0 0.67 0 0.34 0 0 Z " fill="#F8B56F" transform="translate(213,465)"/>
<path d="M0 0 C4.87362847 0.45336079 7.39042389 1.7089159 11 5 C3.25 4.125 3.25 4.125 1 3 C1.04125 3.86625 1.0825 4.7325 1.125 5.625 C0.99542279 9.12358468 0.23980344 11.74551597 -1 15 C-1.33 15 -1.66 15 -2 15 C-2.05429959 13.25034642 -2.09292823 11.50020213 -2.125 9.75 C-2.15980469 8.28820312 -2.15980469 8.28820312 -2.1953125 6.796875 C-1.99862781 3.9803502 -1.44568916 2.39050964 0 0 Z " fill="#F4B776" transform="translate(325,143)"/>
<path d="M0 0 C0.33 0.99 0.66 1.98 1 3 C-0.39113995 4.27596932 -1.78814413 5.54554648 -3.1875 6.8125 C-3.96480469 7.52019531 -4.74210937 8.22789062 -5.54296875 8.95703125 C-7.96504664 10.97093703 -10.15817911 12.63574468 -13 14 C-15.3125 13.6875 -15.3125 13.6875 -17 13 C-15.04594482 11.49412261 -13.08718716 9.99521356 -11.125 8.5 C-10.56941406 8.07074219 -10.01382812 7.64148438 -9.44140625 7.19921875 C-5.2265625 4 -5.2265625 4 -3 4 C-3 3.34 -3 2.68 -3 2 C-2.01 1.34 -1.02 0.68 0 0 Z " fill="#F7BA70" transform="translate(323,360)"/>
<path d="M0 0 C5.5031497 -0.37521475 5.5031497 -0.37521475 7.8828125 1.421875 C10.92103701 3.68652943 14.11474655 4.19917612 17.7578125 5.05859375 C20.54385348 6.22834266 20.86668341 7.28543693 22 10 C22.66 10.33 23.32 10.66 24 11 C23.67 11.66 23.34 12.32 23 13 C22.26910156 12.45472656 22.26910156 12.45472656 21.5234375 11.8984375 C14.75893581 7.10179085 7.66295964 4.07390415 0 1 C0 0.67 0 0.34 0 0 Z M20 5 C23 6 23 6 23 6 Z " fill="#FAC482" transform="translate(48,339)"/>
<path d="M0 0 C-0.81404297 0.58007812 -0.81404297 0.58007812 -1.64453125 1.171875 C-2.71767578 1.95304688 -2.71767578 1.95304688 -3.8125 2.75 C-4.52019531 3.26046875 -5.22789062 3.7709375 -5.95703125 4.296875 C-8.08699111 5.93706027 -8.08699111 5.93706027 -9.63671875 8.203125 C-10.08660156 8.79609375 -10.53648437 9.3890625 -11 10 C-11.66 10 -12.32 10 -13 10 C-13.66 11.32 -14.32 12.64 -15 14 C-15.66 14 -16.32 14 -17 14 C-16.34 12.35 -15.68 10.7 -15 9 C-14.34 9 -13.68 9 -13 9 C-12.731875 8.401875 -12.46375 7.80375 -12.1875 7.1875 C-11.00082594 5.00152146 -9.90400887 3.58667406 -8 2 C-7.34 2 -6.68 2 -6 2 C-6 1.34 -6 0.68 -6 0 C-3.50907189 -1.24546405 -2.58919267 -0.7767578 0 0 Z " fill="#F6B66F" transform="translate(233,8)"/>
<path d="M0 0 C-1.10794922 0.43699219 -1.10794922 0.43699219 -2.23828125 0.8828125 C-9.45362615 3.79828858 -16.24880646 7.13268244 -23 11 C-22.67 9.35 -22.34 7.7 -22 6 C-20.35 6 -18.7 6 -17 6 C-17 5.34 -17 4.68 -17 4 C-15.35 3.67 -13.7 3.34 -12 3 C-12 2.34 -12 1.68 -12 1 C-3.96428571 -1.27678571 -3.96428571 -1.27678571 0 0 Z " fill="#F9C384" transform="translate(402,270)"/>
<path d="M0 0 C3.47480357 3.39456832 6.70876573 6.88816571 9.8125 10.625 C10.60269531 11.56601563 11.39289063 12.50703125 12.20703125 13.4765625 C14 16 14 16 14 19 C13.34 18.34 12.68 17.68 12 17 C9.93125966 16.3574765 9.93125966 16.3574765 8 16 C7.67 14.35 7.34 12.7 7 11 C6.34 11 5.68 11 5 11 C5 10.01 5 9.02 5 8 C4.01 7.67 3.02 7.34 2 7 C2 6.01 2 5.02 2 4 C1.34 4 0.68 4 0 4 C0 2.68 0 1.36 0 0 Z " fill="#F9BC7E" transform="translate(147,148)"/>
<path d="M0 0 C-3 1 -3 1 -5.6640625 0.0703125 C-9.70999072 -1.22779562 -13.16661186 -1.22393137 -17.375 -1.125 C-18.11105469 -1.11597656 -18.84710938 -1.10695313 -19.60546875 -1.09765625 C-21.4037888 -1.07430144 -23.20193911 -1.03843836 -25 -1 C-16.75943289 -7.44010707 -8.39986177 -4.80311245 0 0 Z " fill="#F7C28A" transform="translate(38,299)"/>
<path d="M0 0 C0.33 0.66 0.66 1.32 1 2 C3.01669827 3.13350534 3.01669827 3.13350534 5 4 C5 4.99 5 5.98 5 7 C5.66 7 6.32 7 7 7 C7 7.66 7 8.32 7 9 C7.99 9.33 8.98 9.66 10 10 C11.6875 13.0625 11.6875 13.0625 13 16 C7.00649087 13.33621816 1.90249662 8.95702878 -1 3 C-0.67 2.01 -0.34 1.02 0 0 Z " fill="#F9B871" transform="translate(430,184)"/>
<path d="M0 0 C4 2 4 2 4.828125 3.83984375 C4.96734375 4.53207031 5.1065625 5.22429687 5.25 5.9375 C5.39953125 6.62714844 5.5490625 7.31679687 5.703125 8.02734375 C6 10 6 10 6 13 C4.4221875 13.2165625 4.4221875 13.2165625 2.8125 13.4375 C-0.15460549 13.87526966 -3.06794366 14.37804866 -6 15 C-3.45543849 12.03134491 -0.51005335 10.6380249 3 9 C2.01 6.03 1.02 3.06 0 0 Z " fill="#F8B56E" transform="translate(186,129)"/>
<path d="M0 0 C0.33 0 0.66 0 1 0 C1.10957031 0.7734375 1.21914062 1.546875 1.33203125 2.34375 C2.1728946 7.86747019 3.13147801 12.94331743 5.26953125 18.109375 C6.51197086 21.32510104 7.22135391 24.64583224 8 28 C6 27 6 27 5 24 C4.34 23.67 3.68 23.34 3 23 C2.5859375 20.93359375 2.5859375 20.93359375 2.375 18.4375 C2.30023438 17.61121094 2.22546875 16.78492188 2.1484375 15.93359375 C2.07496094 14.97646484 2.07496094 14.97646484 2 14 C1.34 14 0.68 14 0 14 C0 9.38 0 4.76 0 0 Z " fill="#F8C07F" transform="translate(153,301)"/>
<path d="M0 0 C0 5.19240741 -3.51776959 9.318785 -7 13 C-10.25 14.3125 -10.25 14.3125 -13 15 C-9.35990909 9.33763637 -5.69417549 3.79611699 0 0 Z " fill="#F6B464" transform="translate(378,295)"/>
<path d="M0 0 C5.61 0.33 11.22 0.66 17 1 C17 1.66 17 2.32 17 3 C19.64 3 22.28 3 25 3 C25 3.66 25 4.32 25 5 C16.21156902 5.62774507 8.39685444 3.30784711 0 1 C0 0.67 0 0.34 0 0 Z " fill="#F7BD7C" transform="translate(199,176)"/>
<path d="M0 0 C0.33 0 0.66 0 1 0 C1.33 7.26 1.66 14.52 2 22 C-2.31935316 16.24086245 -2.47680967 11.96363884 -2 5 C-1 1.875 -1 1.875 0 0 Z " fill="#FBAE5F" transform="translate(96,92)"/>
<path d="M0 0 C1.98 0 3.96 0 6 0 C7.00798335 3.23876616 6.99260851 5.83949039 6.66015625 9.203125 C6.56669922 10.1828125 6.47324219 11.1625 6.37695312 12.171875 C6.27318359 13.18765625 6.16941406 14.2034375 6.0625 15.25 C5.91264648 16.796875 5.91264648 16.796875 5.75976562 18.375 C5.5125948 20.91732849 5.25912455 23.4588667 5 26 C4.67 26 4.34 26 4 26 C4 17.75 4 9.5 4 1 C2.68 0.67 1.36 0.34 0 0 Z " fill="#FDA043" transform="translate(89,265)"/>
<path d="M0 0 C1.32 0.99 2.64 1.98 4 3 C2.25156882 4.12743666 0.5011906 5.2518542 -1.25 6.375 C-2.22453125 7.00148438 -3.1990625 7.62796875 -4.203125 8.2734375 C-8.94565217 11.20108696 -8.94565217 11.20108696 -11 12 C-11.99 11.67 -12.98 11.34 -14 11 C-12 8 -12 8 -10.0546875 7.48828125 C-9.33539063 7.43027344 -8.61609375 7.37226563 -7.875 7.3125 C-6.59625 7.209375 -5.3175 7.10625 -4 7 C-4 6.01 -4 5.02 -4 4 C-3.01 3.34 -2.02 2.68 -1 2 C-0.67 1.34 -0.34 0.68 0 0 Z " fill="#F9C185" transform="translate(119,281)"/>
<path d="M0 0 C2.64 0 5.28 0 8 0 C7.67 1.98 7.34 3.96 7 6 C7.66 6 8.32 6 9 6 C9.33 6.99 9.66 7.98 10 9 C10.66 9.66 11.32 10.32 12 11 C9 11 9 11 6.73828125 8.84765625 C5.93777344 7.92855469 5.13726562 7.00945312 4.3125 6.0625 C3.50425781 5.14597656 2.69601563 4.22945313 1.86328125 3.28515625 C0 1 0 1 0 0 Z " fill="#FAA551" transform="translate(160,422)"/>
<path d="M0 0 C0.66 0 1.32 0 2 0 C8.88357458 12.61988672 8.88357458 12.61988672 7.54296875 19.265625 C7.36378906 19.83796875 7.18460937 20.4103125 7 21 C6.01315119 18.62794139 5.0354245 16.25276513 4.0625 13.875 C3.78470703 13.20984375 3.50691406 12.5446875 3.22070312 11.859375 C1.61444624 7.91146651 0.5247835 4.26469631 0 0 Z " fill="#F9BD7B" transform="translate(327,196)"/>
<path d="M0 0 C1.32 0 2.64 0 4 0 C3.55090939 1.48199902 3.09043436 2.96055236 2.625 4.4375 C2.36976563 5.26121094 2.11453125 6.08492188 1.8515625 6.93359375 C1 9 1 9 -1 10 C-1.33 9.34 -1.66 8.68 -2 8 C-2.66 8 -3.32 8 -4 8 C-3.40339753 4.65902615 -2.36924875 2.45699871 0 0 Z " fill="#F99B3E" transform="translate(140,432)"/>
<path d="M0 0 C0.33 0.99 0.66 1.98 1 3 C0.01 3.33 -0.98 3.66 -2 4 C-2.04125 4.721875 -2.0825 5.44375 -2.125 6.1875 C-3.42073497 10.35236242 -5.38228195 11.58818797 -9 14 C-11.19921875 13.6328125 -11.19921875 13.6328125 -13 13 C-12.39671875 12.48050781 -11.7934375 11.96101563 -11.171875 11.42578125 C-7.07408883 7.85013235 -3.19314256 4.44263312 0 0 Z " fill="#F9B770" transform="translate(143,278)"/>
<path d="M0 0 C0 3.20395416 -0.74335022 5.09399739 -2 8 C-2.66 8 -3.32 8 -4 8 C-4 9.32 -4 10.64 -4 12 C-4.99 12 -5.98 12 -7 12 C-7 13.32 -7 14.64 -7 16 C-9.87354245 18.17457267 -11.36436591 19 -15 19 C-14.41992188 18.38253906 -13.83984375 17.76507813 -13.2421875 17.12890625 C-8.24925367 11.71577502 -3.86309662 6.27185098 0 0 Z " fill="#F7C080" transform="translate(95,196)"/>
<path d="M0 0 C0.66 0.33 1.32 0.66 2 1 C1.67 1.99 1.34 2.98 1 4 C0.01 4 -0.98 4 -2 4 C-3.32286246 8.96073422 -3.08893197 13.91111512 -3 19 C-3.66 19.33 -4.32 19.66 -5 20 C-6.75219842 16.49560316 -6.56442162 12.82350132 -6 9 C-4.4735538 5.7046396 -2.58201795 2.58201795 0 0 Z " fill="#F4C88E" transform="translate(200,274)"/>
<path d="M0 0 C0 3 0 3 -1 5.75 C-2.70480396 11.29061287 -2.09658599 16.37999679 -1 22 C-4.35784032 18.9341458 -4.94763549 16.79855877 -5.25 12.1875 C-5.19482828 7.19445943 -3.54406174 3.54406174 0 0 Z " fill="#F6D091" transform="translate(286,275)"/>
<path d="M0 0 C1.32 0.33 2.64 0.66 4 1 C0.72469104 5.63720719 -2.30435607 9.68542782 -7 13 C-6.67 11.02 -6.34 9.04 -6 7 C-5.01 7 -4.02 7 -3 7 C-3 5.35 -3 3.7 -3 2 C-2.01 2 -1.02 2 0 2 C0 1.34 0 0.68 0 0 Z " fill="#F6B16A" transform="translate(175,218)"/>
<path d="M0 0 C1.07765625 0.01804688 2.1553125 0.03609375 3.265625 0.0546875 C4.49539063 0.08949219 4.49539063 0.08949219 5.75 0.125 C5.75 0.455 5.75 0.785 5.75 1.125 C4.82380859 1.12886719 4.82380859 1.12886719 3.87890625 1.1328125 C-2.41798044 1.42034157 -6.2087742 2.8726404 -11.2421875 6.65234375 C-13.17583053 8.07059943 -15.07941933 9.11757803 -17.25 10.125 C-15.5102658 5.69658566 -12.42758556 3.48719009 -8.4765625 1.015625 C-5.553978 -0.1534088 -3.13636012 -0.06818174 0 0 Z " fill="#FAC68B" transform="translate(343.25,54.875)"/>
<path d="M0 0 C0.33 0 0.66 0 1 0 C1 8.25 1 16.5 1 25 C1.66 25 2.32 25 3 25 C3 25.99 3 26.98 3 28 C1.68 28 0.36 28 -1 28 C-0.67 18.76 -0.34 9.52 0 0 Z " fill="#F8E9B5" transform="translate(354,278)"/>
<path d="M0 0 C7.79926693 -0.75476777 12.87927634 1.00869559 19 6 C19.33 6.99 19.66 7.98 20 9 C18.0625 8.6875 18.0625 8.6875 16 8 C15.67 7.01 15.34 6.02 15 5 C13.35 4.67 11.7 4.34 10 4 C10 3.34 10 2.68 10 2 C6.7 1.67 3.4 1.34 0 1 C0 0.67 0 0.34 0 0 Z " fill="#F5BB7C" transform="translate(480,239)"/>
<path d="M0 0 C0.33 0 0.66 0 1 0 C2.09751783 6.99001647 3.17321655 13.97234063 4 21 C3.34 21 2.68 21 2 21 C-0.71486934 17.02389214 -0.22440753 12.86098023 -0.125 8.25 C-0.11597656 7.45722656 -0.10695313 6.66445312 -0.09765625 5.84765625 C-0.07417012 3.89830719 -0.03830137 1.94911425 0 0 Z " fill="#F9C186" transform="translate(400,160)"/>
<path d="M0 0 C-13.10679612 9 -13.10679612 9 -17 9 C-17 8.01 -17 7.02 -17 6 C-15.68 6 -14.36 6 -13 6 C-13 5.34 -13 4.68 -13 4 C-12.01 4 -11.02 4 -10 4 C-10 3.34 -10 2.68 -10 2 C-3.375 -1.125 -3.375 -1.125 0 0 Z " fill="#F7BF7C" transform="translate(342,423)"/>
<path d="M0 0 C7.74468085 0.74468085 7.74468085 0.74468085 11 4 C11 4.66 11 5.32 11 6 C11.99 6 12.98 6 14 6 C14.33 7.65 14.66 9.3 15 11 C14.50371094 10.61328125 14.00742188 10.2265625 13.49609375 9.828125 C9.15116853 6.49729049 4.81370839 3.60742538 0 1 C0 0.67 0 0.34 0 0 Z " fill="#FABD7A" transform="translate(152,93)"/>
<path d="M0 0 C0.99 0.495 0.99 0.495 2 1 C2.5625 3.0390625 2.5625 3.0390625 3 5.625 C3.56555476 8.79210665 4.19623232 11.81471052 5.1875 14.875 C6.00159446 18.00613254 5.90361986 19.03920301 5 22 C1.72960132 14.44304306 -0.70226833 8.28676624 0 0 Z " fill="#F9BE79" transform="translate(296,442)"/>
<path d="M0 0 C0.33 0 0.66 0 1 0 C1.10957031 0.65484375 1.21914063 1.3096875 1.33203125 1.984375 C2.56522732 9.08277187 4.17574825 16.0313583 6 23 C4.04296875 22.28515625 4.04296875 22.28515625 2 21 C1.42578125 18.87109375 1.42578125 18.87109375 1.3125 16.4375 C1.37731549 13.41906099 1.37731549 13.41906099 0 11 C-0.07226502 9.14712498 -0.0838122 7.29166122 -0.0625 5.4375 C-0.05347656 4.42558594 -0.04445313 3.41367188 -0.03515625 2.37109375 C-0.02355469 1.58863281 -0.01195312 0.80617187 0 0 Z " fill="#F7C48E" transform="translate(310,178)"/>
<path d="M0 0 C-1.36253583 3.11824121 -2.85108253 5.04737351 -5.4375 7.25 C-6.33275391 8.03117188 -6.33275391 8.03117188 -7.24609375 8.828125 C-9 10 -9 10 -12 10 C-10.58426179 6.60812721 -8.95769034 4.90302459 -6 2.75 C-5.29875 2.22921875 -4.5975 1.7084375 -3.875 1.171875 C-2 0 -2 0 0 0 Z " fill="#F8BA73" transform="translate(22,127)"/>
<path d="M0 0 C1.03115279 3.26913624 0.9638984 5.86041348 0.5625 9.25 C0.46066406 10.14203125 0.35882813 11.0340625 0.25390625 11.953125 C0.12822266 12.96632813 0.12822266 12.96632813 0 14 C0.66 14 1.32 14 2 14 C2.33 15.65 2.66 17.3 3 19 C2.34 19.33 1.68 19.66 1 20 C-1.68415834 14.63168332 -2.48457139 11.00868527 -2 5 C-1 2 -1 2 0 0 Z " fill="#F6CB98" transform="translate(5,306)"/>
<path d="M0 0 C0.66 1.32 1.32 2.64 2 4 C-2.455 7.96 -2.455 7.96 -7 12 C-8.32 11.34 -9.64 10.68 -11 10 C-11 9.34 -11 8.68 -11 8 C-8.03 7.34 -5.06 6.68 -2 6 C-2 5.34 -2 4.68 -2 4 C-1.34 4 -0.68 4 0 4 C0 2.68 0 1.36 0 0 Z " fill="#F9B563" transform="translate(283,67)"/>
<path d="M0 0 C-3.84344382 2.24538034 -7.9638019 3.1026736 -12.25 4.125 C-12.99507812 4.30675781 -13.74015625 4.48851562 -14.5078125 4.67578125 C-16.3375026 5.12147499 -18.16861575 5.56131959 -20 6 C-20 5.01 -20 4.02 -20 3 C-13.19925959 1.09579269 -7.08076251 -0.40850553 0 0 Z " fill="#F6C480" transform="translate(62,266)"/>
<path d="M0 0 C0.33 0 0.66 0 1 0 C1 6.27 1 12.54 1 19 C0.34 19 -0.32 19 -1 19 C-1 20.65 -1 22.3 -1 24 C-1.33 24 -1.66 24 -2 24 C-2.28545428 15.86455314 -1.18396883 8.02350304 0 0 Z " fill="#F7B16E" transform="translate(108,145)"/>
<path d="M0 0 C1.32 0.33 2.64 0.66 4 1 C2.78521149 2.18163051 1.55247592 3.34482835 0.3125 4.5 C-0.37199219 5.1496875 -1.05648437 5.799375 -1.76171875 6.46875 C-4.40656372 8.27813784 -5.86162389 8.3077917 -9 8 C-6.47945145 5.29941227 -4.30728879 3.59662217 -1 2 C-0.67 1.34 -0.34 0.68 0 0 Z " fill="#F7AF63" transform="translate(68,438)"/>
<path d="M0 0 C0.33 0 0.66 0 1 0 C1 5.28 1 10.56 1 16 C0.34 16 -0.32 16 -1 16 C-1 17.65 -1 19.3 -1 21 C-1.66 21 -2.32 21 -3 21 C-2.17321655 13.97234063 -1.09751783 6.99001647 0 0 Z " fill="#F9C58B" transform="translate(106,428)"/>
<path d="M0 0 C1.9375 0.3125 1.9375 0.3125 4 1 C4.33 1.99 4.66 2.98 5 4 C5.99 4.33 6.98 4.66 8 5 C9.1875 8.0625 9.1875 8.0625 10 11 C6.8510285 9.63088196 4.9521513 8.1247864 2.75 5.5 C2.22921875 4.8915625 1.7084375 4.283125 1.171875 3.65625 C0 2 0 2 0 0 Z " fill="#F7BA74" transform="translate(6,432)"/>
<path d="M0 0 C1.98 0.99 1.98 0.99 4 2 C4 2.66 4 3.32 4 4 C5.03060547 3.96519531 5.03060547 3.96519531 6.08203125 3.9296875 C7.43361328 3.90261719 7.43361328 3.90261719 8.8125 3.875 C9.70582031 3.85179687 10.59914063 3.82859375 11.51953125 3.8046875 C14 4 14 4 17 6 C14.72975032 6.08097324 12.45867925 6.13917704 10.1875 6.1875 C8.29064453 6.23970703 8.29064453 6.23970703 6.35546875 6.29296875 C3 6 3 6 1.05078125 4.67578125 C0 3 0 3 0 0 Z " fill="#F99D41" transform="translate(285,295)"/>
<path d="M0 0 C5.7109375 2.7890625 5.7109375 2.7890625 8.3125 4.6875 C12.18316309 6.57782384 15.7669892 6.24900064 20 6 C16.24171538 8.50552308 14.46348506 8.37195709 10 8 C7.53553318 7.17213056 5.34427186 6.14821479 3 5 C3 4.34 3 3.68 3 3 C2.01 2.67 1.02 2.34 0 2 C0 1.34 0 0.68 0 0 Z " fill="#F7D092" transform="translate(240,295)"/>
<path d="M0 0 C1.99760127 2.99640191 2.69158228 5.46779873 3.48828125 8.94140625 C4.01778612 11.22759251 4.01778612 11.22759251 5.1875 14.25 C6.04874347 17.16497791 5.84716788 18.18812365 5 21 C3.96588523 18.25435036 2.94748843 15.5045139 1.9375 12.75 C1.64294922 11.97269531 1.34839844 11.19539062 1.04492188 10.39453125 C0.6340332 9.26337891 0.6340332 9.26337891 0.21484375 8.109375 C-0.04176025 7.41811523 -0.29836426 6.72685547 -0.56274414 6.01464844 C-1.06952056 3.67968529 -0.74214139 2.24624397 0 0 Z " fill="#F9C080" transform="translate(347,243)"/>
<path d="M0 0 C4.18423892 3.50897269 8.19588166 7.08060535 12 11 C11.01 11.495 11.01 11.495 10 12 C10 11.34 10 10.68 10 10 C7.03 9.505 7.03 9.505 4 9 C4 7.68 4 6.36 4 5 C3.01 5 2.02 5 1 5 C0.67 3.35 0.34 1.7 0 0 Z " fill="#F8BC77" transform="translate(421,210)"/>
<path d="M0 0 C0.33 0 0.66 0 1 0 C1.57433809 9.76374745 1.57433809 9.76374745 -2 14 C-2.99 14.33 -3.98 14.66 -5 15 C-3.33333333 10 -1.66666667 5 0 0 Z " fill="#FABF7C" transform="translate(368,127)"/>
<path d="M0 0 C1.65 0 3.3 0 5 0 C1.6189962 4.13621084 -1.66590534 7.81316569 -6 11 C-5.38722388 8.03824877 -4.74627478 6.61941217 -3 4 C-2.01 4 -1.02 4 0 4 C0 2.68 0 1.36 0 0 Z " fill="#F9BB78" transform="translate(364,400)"/>
<path d="M0 0 C2 1.5625 2 1.5625 4 4 C4.25 7.75 4.25 7.75 4 11 C2.35 10.67 0.7 10.34 -1 10 C-1 9.01 -1 8.02 -1 7 C-0.34 6.67 0.32 6.34 1 6 C0.67 4.02 0.34 2.04 0 0 Z " fill="#F9AA56" transform="translate(307,275)"/>
<path d="M0 0 C0.66 0 1.32 0 2 0 C2 1.32 2 2.64 2 4 C2.66 4 3.32 4 4 4 C4.53341184 5.57914015 5.05125763 7.16354387 5.5625 8.75 C5.85253906 9.63171875 6.14257812 10.5134375 6.44140625 11.421875 C7.02820739 14.13018796 6.75639869 15.39972846 6 18 C4.99600476 15.37646482 3.99665555 12.75132205 3 10.125 C2.57074219 9.00544922 2.57074219 9.00544922 2.1328125 7.86328125 C0 2.2265625 0 2.2265625 0 0 Z " fill="#F7C88C" transform="translate(339,227)"/>
<path d="M0 0 C9.405 1.485 9.405 1.485 19 3 C19 3.33 19 3.66 19 4 C16.58303128 4.05411124 14.16728213 4.09372278 11.75 4.125 C11.06808594 4.14175781 10.38617188 4.15851563 9.68359375 4.17578125 C5.9391765 4.21213482 3.17647273 4.07944349 0 2 C0 1.34 0 0.68 0 0 Z " fill="#F8C48A" transform="translate(460,235)"/>
<path d="M0 0 C3.32637022 2.69277589 4.58473125 6.03724749 6 10 C5.67 10.99 5.34 11.98 5 13 C5 12.34 5 11.68 5 11 C4.01 11 3.02 11 2 11 C0.57741188 7.17679443 -0.24042276 4.08718695 0 0 Z " fill="#FABE7A" transform="translate(501,142)"/>
<path d="M0 0 C7.425 0.99 7.425 0.99 15 2 C15 2.66 15 3.32 15 4 C11.7 4 8.4 4 5 4 C5 3.34 5 2.68 5 2 C3.35 2 1.7 2 0 2 C0 1.34 0 0.68 0 0 Z " fill="#F7C58C" transform="translate(232,103)"/>
<path d="M0 0 C1.24324708 3.72974123 0.47738015 4.46957088 -1 8 C-1.42573106 10.09449169 -1.80000494 12.20003211 -2.125 14.3125 C-2.29257813 15.38113281 -2.46015625 16.44976562 -2.6328125 17.55078125 C-2.75398437 18.35902344 -2.87515625 19.16726563 -3 20 C-3.33 20 -3.66 20 -4 20 C-4.20894383 13.52274137 -4.00086026 7.2248986 -2 1 C-1.34 0.67 -0.68 0.34 0 0 Z " fill="#FAC88B" transform="translate(139,442)"/>
<path d="M0 0 C5.10557473 3.71314526 7.55426749 7.20217529 10 13 C8 13 8 13 5.9375 11.1875 C4 9 4 9 3 6 C2.34 5.67 1.68 5.34 1 5 C0.375 2.4375 0.375 2.4375 0 0 Z " fill="#F8B870" transform="translate(70,379)"/>
<path d="M0 0 C0.33 0 0.66 0 1 0 C0.7444669 5.86448454 0.34242429 9.65757571 -4 14 C-4.3704698 6.46711409 -4.3704698 6.46711409 -2.5625 4.1875 C-2.046875 3.795625 -1.53125 3.40375 -1 3 C-0.67 2.01 -0.34 1.02 0 0 Z " fill="#F7B667" transform="translate(397,355)"/>
<path d="M0 0 C0.556875 0.70125 1.11375 1.4025 1.6875 2.125 C3.35090022 4.19301109 5.0344533 6.22653466 6.75 8.25 C9 11 9 11 9 12 C7.35 12 5.7 12 4 12 C3.34 9.36 2.68 6.72 2 4 C1.34 4 0.68 4 0 4 C0 2.68 0 1.36 0 0 Z " fill="#F6BA70" transform="translate(167,340)"/>
<path d="M0 0 C0.33 0 0.66 0 1 0 C0.97679688 0.56847656 0.95359375 1.13695312 0.9296875 1.72265625 C0.80808312 6.92558648 1.32276508 11.07312243 3 16 C2.34 16.33 1.68 16.66 1 17 C-1.55311917 12.21290155 -1.40253336 7.28910111 -1 2 C-0.67 1.34 -0.34 0.68 0 0 Z " fill="#FABF7F" transform="translate(95,465)"/>
<path d="M0 0 C5.0916072 2.86402905 10.06584484 5.87289907 15 9 C12.32528957 10.33735521 11.30659828 9.71006471 8.5 8.8125 C7.7059375 8.57144531 6.911875 8.33039063 6.09375 8.08203125 C3.53221444 6.75825261 3.12046837 5.58848944 2 3 C1.34 2.67 0.68 2.34 0 2 C0 1.34 0 0.68 0 0 Z " fill="#F7C382" transform="translate(193,368)"/>
<path d="M0 0 C0 0.99 0 1.98 0 3 C-3.3146667 5.02907167 -5.4315979 5.12742133 -9.25 4.625 C-10.14203125 4.51414062 -11.0340625 4.40328125 -11.953125 4.2890625 C-12.96632813 4.14597656 -12.96632813 4.14597656 -14 4 C-14 3.67 -14 3.34 -14 3 C-12.0424015 2.49713066 -10.08389623 1.9977901 -8.125 1.5 C-7.03445312 1.2215625 -5.94390625 0.943125 -4.8203125 0.65625 C-2 0 -2 0 0 0 Z " fill="#FBB26B" transform="translate(103,305)"/>
<path d="M0 0 C0.33 0.66 0.66 1.32 1 2 C1.66 2 2.32 2 3 2 C1.72278474 6.99275057 -0.17330957 9.57611908 -4 13 C-3.67 11.68 -3.34 10.36 -3 9 C-2.34 9 -1.68 9 -1 9 C-1.020625 7.88625 -1.04125 6.7725 -1.0625 5.625 C-1 2 -1 2 0 0 Z " fill="#FBB973" transform="translate(77,179)"/>
<path d="M0 0 C0.99 0.33 1.98 0.66 3 1 C0.69 4.63 -1.62 8.26 -4 12 C-5 8 -5 8 -4.0625 5.75 C-3.5365625 4.88375 -3.5365625 4.88375 -3 4 C-2.34 4 -1.68 4 -1 4 C-0.67 2.68 -0.34 1.36 0 0 Z " fill="#FBC17A" transform="translate(390,369)"/>
<path d="M0 0 C6.81598387 -0.33278764 11.92122066 -0.24201565 18 3 C14.12601645 4.29132785 11.18011214 3.41113572 7.3125 2.5625 C6.61060547 2.41490234 5.90871094 2.26730469 5.18554688 2.11523438 C3.45555806 1.7504068 1.72757037 1.37611311 0 1 C0 0.67 0 0.34 0 0 Z " fill="#F9C489" transform="translate(30,335)"/>
<path d="M0 0 C0.33 1.32 0.66 2.64 1 4 C-1.25 6.4375 -1.25 6.4375 -4 9 C-5.05287814 10.63377642 -6.0727001 12.29181597 -7 14 C-7.99 13.67 -8.98 13.34 -10 13 C-5.05 6.565 -5.05 6.565 0 0 Z " fill="#F8C483" transform="translate(355,321)"/>
<path d="M0 0 C0.33 0 0.66 0 1 0 C1.20674944 5.78898419 0.59162079 10.42932723 -1 16 C-1.33 16 -1.66 16 -2 16 C-2.05423638 14.08364783 -2.09289963 12.16685075 -2.125 10.25 C-2.14820313 9.18265625 -2.17140625 8.1153125 -2.1953125 7.015625 C-2.00487687 4.07529894 -1.52670104 2.47638122 0 0 Z " fill="#F9C789" transform="translate(413,307)"/>
<path d="M0 0 C0.66 0.33 1.32 0.66 2 1 C2 1.66 2 2.32 2 3 C0.46875 4.2890625 0.46875 4.2890625 -1.5 5.625 C-2.1496875 6.07101562 -2.799375 6.51703125 -3.46875 6.9765625 C-4.22671875 7.48316406 -4.22671875 7.48316406 -5 8 C-5.99 7.34 -6.98 6.68 -8 6 C-5.36 4.02 -2.72 2.04 0 0 Z " fill="#FAB46B" transform="translate(128,292)"/>
<path d="M0 0 C3.33930628 3.33930628 3.34589964 4.42031879 3.3984375 8.96484375 C3 11 3 11 0 15 C0 10.05 0 5.1 0 0 Z " fill="#F7C27B" transform="translate(223,280)"/>
<path d="M0 0 C1.32310902 4.43393023 1.1353545 8.52636434 0 13 C-2.0625 15.0625 -2.0625 15.0625 -4 16 C-3.6083965 10.04492601 -2.62875405 5.37180176 0 0 Z " fill="#F9B36C" transform="translate(373,111)"/>
<path d="M0 0 C0.66 0 1.32 0 2 0 C0.4422692 3.82352106 -1.91595258 6.29205593 -5 9 C-5.99 9 -6.98 9 -8 9 C-7.67 7.68 -7.34 6.36 -7 5 C-5.35 5 -3.7 5 -2 5 C-1.855625 4.360625 -1.71125 3.72125 -1.5625 3.0625 C-1 1 -1 1 0 0 Z " fill="#F5C37E" transform="translate(499,268)"/>
<path d="M0 0 C0.66 0 1.32 0 2 0 C2 0.99 2 1.98 2 3 C1.34 3 0.68 3 0 3 C0 3.99 0 4.98 0 6 C-0.66 6 -1.32 6 -2 6 C-2.103125 6.78375 -2.20625 7.5675 -2.3125 8.375 C-3 11 -3 11 -6 13 C-4.58707905 8.1725201 -2.57025846 4.2837641 0 0 Z " fill="#F9CB91" transform="translate(432,137)"/>
<path d="M0 0 C0.99 0.33 1.98 0.66 3 1 C-1.27152492 4.95897432 -4.31251115 6.74875245 -10 8 C-10 7.34 -10 6.68 -10 6 C-8.02 5.67 -6.04 5.34 -4 5 C-3.67 4.01 -3.34 3.02 -3 2 C-2.01 2 -1.02 2 0 2 C0 1.34 0 0.68 0 0 Z " fill="#F5CA8D" transform="translate(128,484)"/>
<path d="M0 0 C2.56781248 0.98884704 3.76249971 1.55586589 5.08203125 4.0234375 C5.32308594 4.79945313 5.56414062 5.57546875 5.8125 6.375 C6.06644531 7.14585937 6.32039063 7.91671875 6.58203125 8.7109375 C7.03167033 11.17344686 6.78898188 12.64915604 6 15 C4 10 2 5 0 0 Z " fill="#F7CA8C" transform="translate(96,379)"/>
<path d="M0 0 C0 3.32058331 -0.43061972 5.08543662 -2 8 C-4.625 9.3125 -4.625 9.3125 -7 10 C-7 10.66 -7 11.32 -7 12 C-7.66 12 -8.32 12 -9 12 C-7.55575365 8.76138697 -5.74227753 6.38030837 -3.375 3.75 C-2.74335938 3.04359375 -2.11171875 2.3371875 -1.4609375 1.609375 C-0.97882813 1.07828125 -0.49671875 0.5471875 0 0 Z " fill="#F8C081" transform="translate(339,342)"/>
<path d="M0 0 C0 1.65 0 3.3 0 5 C1.32 4.67 2.64 4.34 4 4 C4 4.99 4 5.98 4 7 C2.68 7 1.36 7 0 7 C-2.25 4.5 -2.25 4.5 -4 2 C-1 0 -1 0 0 0 Z " fill="#F7B464" transform="translate(200,293)"/>
<path d="M0 0 C5.61 0 11.22 0 17 0 C17.33 0.66 17.66 1.32 18 2 C11.6496923 3.41117949 6.30338787 2.3792223 0 1 C0 0.67 0 0.34 0 0 Z " fill="#F9C37B" transform="translate(270,188)"/>
<path d="M0 0 C3.12290635 0.48578543 5.99580359 0.9986012 9 2 C9.6875 4.0625 9.6875 4.0625 10 6 C5.56909529 4.79157144 3.01887244 3.48331435 0 0 Z " fill="#F8AF60" transform="translate(181,443)"/>
<path d="M0 0 C4.43458973 1.3937282 6.87378374 3.60582235 10 7 C7.03 6.505 7.03 6.505 4 6 C4 5.01 4 4.02 4 3 C2.68 2.67 1.36 2.34 0 2 C0 1.34 0 0.68 0 0 Z " fill="#F8BD76" transform="translate(60,372)"/>
<path d="M0 0 C-0.1875 1.8125 -0.1875 1.8125 -1 4 C-3.3125 5.8125 -3.3125 5.8125 -6 7 C-8.16796875 6.57421875 -8.16796875 6.57421875 -10 6 C-8.71283353 4.99421411 -7.42011342 3.99553202 -6.125 3 C-5.40570313 2.443125 -4.68640625 1.88625 -3.9453125 1.3125 C-2 0 -2 0 0 0 Z " fill="#F6BF80" transform="translate(316,367)"/>
<path d="M0 0 C2.53833449 1.26916725 2.89400901 2.41624809 4.125 4.9375 C4.47820312 5.64777344 4.83140625 6.35804688 5.1953125 7.08984375 C6 9 6 9 6 11 C1.82608696 9.60869565 1.82608696 9.60869565 0 7 C-0.1875 3.3125 -0.1875 3.3125 0 0 Z " fill="#F9C374" transform="translate(161,329)"/>
<path d="M0 0 C0.66 0.33 1.32 0.66 2 1 C0.06382979 7.70212766 0.06382979 7.70212766 -3 10 C-3.66 10 -4.32 10 -5 10 C-3.84414715 6.08788267 -2.64465038 3.1254959 0 0 Z " fill="#F9C287" transform="translate(8,137)"/>
<path d="M0 0 C3.99881788 0.61520275 6.80358226 2.60268669 10 5 C10 5.66 10 6.32 10 7 C7.03 6.505 7.03 6.505 4 6 C3.67 5.01 3.34 4.02 3 3 C2.01 2.67 1.02 2.34 0 2 C0 1.34 0 0.68 0 0 Z " fill="#F8BE7D" transform="translate(60,127)"/>
<path d="M0 0 C-3.75 3 -3.75 3 -6 3 C-6.33 3.99 -6.66 4.98 -7 6 C-8.65 6 -10.3 6 -12 6 C-4.8 -1.6 -4.8 -1.6 0 0 Z " fill="#F8C07C" transform="translate(451,126)"/>
<path d="M0 0 C-1.45738102 0.98058352 -2.91593675 1.95942132 -4.375 2.9375 C-5.18710937 3.48277344 -5.99921875 4.02804688 -6.8359375 4.58984375 C-9 6 -9 6 -11 7 C-11.33 6.01 -11.66 5.02 -12 4 C-11.01 4 -10.02 4 -9 4 C-9 3.34 -9 2.68 -9 2 C-8.34 2 -7.68 2 -7 2 C-7 1.34 -7 0.68 -7 0 C-3.98968256 -0.93423645 -3.13349732 -1.04449911 0 0 Z " fill="#F7C383" transform="translate(354,93)"/>
<path d="M0 0 C4.29 0 8.58 0 13 0 C13.33 0.99 13.66 1.98 14 3 C9.30976546 2.43393721 4.65499974 1.81462495 0 1 C0 0.67 0 0.34 0 0 Z " fill="#F6B372" transform="translate(254,481)"/>
<path d="M0 0 C3.16115776 1.36983503 3.9927092 1.9890638 6 5 C5.67 5.99 5.34 6.98 5 8 C2.5 5.6875 2.5 5.6875 0 3 C0 2.01 0 1.02 0 0 Z " fill="#F5AC5B" transform="translate(238,289)"/>
<path d="M0 0 C0.33 0.66 0.66 1.32 1 2 C2.65 1.67 4.3 1.34 6 1 C6 1.99 6 2.98 6 4 C6.99 4 7.98 4 9 4 C9 4.66 9 5.32 9 6 C7.37276701 5.54965877 5.74826336 5.08944646 4.125 4.625 C3.22007812 4.36976563 2.31515625 4.11453125 1.3828125 3.8515625 C-1 3 -1 3 -3 1 C-2.01 0.67 -1.02 0.34 0 0 Z " fill="#FAB767" transform="translate(458,267)"/>
<path d="M0 0 C0.33 0.66 0.66 1.32 1 2 C0.27720683 3.97125409 -0.45131454 5.94096058 -1.23046875 7.890625 C-2.20220183 10.55425881 -2.6490934 13.19274721 -3 16 C-3.33 16 -3.66 16 -4 16 C-4.36266924 10.19729221 -3.30512167 6.34788227 -1 1 C-0.67 0.67 -0.34 0.34 0 0 Z " fill="#F7D2A9" transform="translate(7,247)"/>
<path d="M0 0 C0.33 0.66 0.66 1.32 1 2 C0.67 2.66 0.34 3.32 0 4 C-0.99 4 -1.98 4 -3 4 C-3.66 5.32 -4.32 6.64 -5 8 C-6.32 7.67 -7.64 7.34 -9 7 C-6.03 4.69 -3.06 2.38 0 0 Z " fill="#F5C17A" transform="translate(79,216)"/>
<path d="M0 0 C2.00130916 2.54712074 3.85727656 4.9527375 5 8 C4.625 10.25 4.625 10.25 4 12 C3.34 10.35 2.68 8.7 2 7 C1.34 7 0.68 7 0 7 C0 4.69 0 2.38 0 0 Z " fill="#F9BC78" transform="translate(77,142)"/>
<path d="M0 0 C-1.0975223 2.99324263 -1.67682892 3.84610901 -4.625 5.25 C-5.40875 5.4975 -6.1925 5.745 -7 6 C-7 6.66 -7 7.32 -7 8 C-7.66 8 -8.32 8 -9 8 C-7.47364599 4.11473526 -4.49771687 0 0 0 Z " fill="#F7C386" transform="translate(106,84)"/>
<path d="M0 0 C1.9375 0.75 1.9375 0.75 4 2 C4.33333333 3.33333333 4.66666667 4.66666667 5 6 C6.9837767 7.28436734 6.9837767 7.28436734 9 8 C8.34 8.66 7.68 9.32 7 10 C6.01524786 8.90081184 5.03739527 7.7954398 4.0625 6.6875 C3.51722656 6.07261719 2.97195312 5.45773438 2.41015625 4.82421875 C1 3 1 3 0 0 Z " fill="#F8C382" transform="translate(215,63)"/>
<path d="M0 0 C6.57142857 5 6.57142857 5 8 10 C5.525 9.01 5.525 9.01 3 8 C3 6.68 3 5.36 3 4 C2.01 4 1.02 4 0 4 C0 2.68 0 1.36 0 0 Z " fill="#F7C88D" transform="translate(281,12)"/>
<path d="M0 0 C1.98 0 3.96 0 6 0 C4.02 2.31 2.04 4.62 0 7 C-1 3 -1 3 0 0 Z " fill="#FAB86D" transform="translate(370,393)"/>
<path d="M0 0 C4.67692308 1.47692308 4.67692308 1.47692308 6.3125 4.125 C6.539375 4.74375 6.76625 5.3625 7 6 C7.99 6 8.98 6 10 6 C10 6.66 10 7.32 10 8 C5.80837855 7.04735876 4.2792209 6.36739592 1.625 2.875 C1.08875 1.92625 0.5525 0.9775 0 0 Z " fill="#F7C380" transform="translate(7,326)"/>
<path d="M0 0 C0 0.66 0 1.32 0 2 C-0.598125 2.2475 -1.19625 2.495 -1.8125 2.75 C-4.28647521 4.16370012 -5.43370255 5.65055383 -7 8 C-8.32 7.67 -9.64 7.34 -11 7 C-9.54634731 5.82750647 -8.08692581 4.66216184 -6.625 3.5 C-5.40683594 2.52546875 -5.40683594 2.52546875 -4.1640625 1.53125 C-2 0 -2 0 0 0 Z " fill="#F8C188" transform="translate(390,287)"/>
<path d="M0 0 C1.62723299 0.45034123 3.25173664 0.91055354 4.875 1.375 C5.77992188 1.63023437 6.68484375 1.88546875 7.6171875 2.1484375 C10 3 10 3 12 5 C8.7 4.67 5.4 4.34 2 4 C2 3.34 2 2.68 2 2 C1.34 2 0.68 2 0 2 C0 1.34 0 0.68 0 0 Z " fill="#F8C084" transform="translate(185,181)"/>
<path d="M0 0 C3.98381075 2.16264012 6.88983545 4.71211176 10 8 C7.5625 7.625 7.5625 7.625 5 7 C4.67 6.34 4.34 5.68 4 5 C3.01 4.67 2.02 4.34 1 4 C0.3125 1.9375 0.3125 1.9375 0 0 Z " fill="#F9C488" transform="translate(162,166)"/>
<path d="M0 0 C1.32 0 2.64 0 4 0 C4 0.66 4 1.32 4 2 C5.65 2 7.3 2 9 2 C9 3.32 9 4.64 9 6 C5.06326356 4.68775452 2.77280706 3.08089673 0 0 Z " fill="#F6BA78" transform="translate(172,162)"/>
<path d="M0 0 C0.33 0 0.66 0 1 0 C1 3.3 1 6.6 1 10 C0.01 10.33 -0.98 10.66 -2 11 C-1.85892253 9.54119891 -1.71197585 8.08296449 -1.5625 6.625 C-1.48128906 5.81289062 -1.40007812 5.00078125 -1.31640625 4.1640625 C-1 2 -1 2 0 0 Z " fill="#FABB75" transform="translate(2,147)"/>
<path d="M0 0 C0 0.66 0 1.32 0 2 C-0.99 2.33 -1.98 2.66 -3 3 C-3.33 3.99 -3.66 4.98 -4 6 C-3.01 6 -2.02 6 -1 6 C-1.33 7.32 -1.66 8.64 -2 10 C-4.0625 8.25 -4.0625 8.25 -6 6 C-5.9375 3.875 -5.9375 3.875 -5 2 C-2 0 -2 0 0 0 Z " fill="#F7BC80" transform="translate(170,149)"/>
<path d="M0 0 C4.10958767 1.45044271 7.43258745 3.51110752 11 6 C7.15510125 7.28163292 5.62830387 6.69835501 2 5 C0.625 2.375 0.625 2.375 0 0 Z " fill="#F9C184" transform="translate(336,148)"/>
<path d="M0 0 C0.33 0 0.66 0 1 0 C1.12375 1.19625 1.2475 2.3925 1.375 3.625 C1.71213579 6.42620177 2.20510566 8.60392222 3.125 11.3125 C4 14 4 14 3 17 C-0.03901852 11.17521449 -0.3540919 6.51791392 0 0 Z " fill="#FACB92" transform="translate(94,97)"/>
<path d="M0 0 C2.64752004 2.57784846 4.94432065 4.91648098 7 8 C4.03 7.505 4.03 7.505 1 7 C0.67 4.69 0.34 2.38 0 0 Z " fill="#F9BE78" transform="translate(184,72)"/>
<path d="M0 0 C2.02196167 2.02196167 2.67551358 3.25864486 3.6875 5.875 C3.95949219 6.55304687 4.23148437 7.23109375 4.51171875 7.9296875 C5.07336741 10.31107782 4.76694846 11.70430191 4 14 C3.32471777 12.42032193 2.66010306 10.83608097 2 9.25 C1.62875 8.36828125 1.2575 7.4865625 0.875 6.578125 C0 4 0 4 0 0 Z " fill="#F6C589" transform="translate(289,22)"/>
<path d="M0 0 C4.43090471 1.20842856 6.98112756 2.51668565 10 6 C6.44219804 5.39009109 3.3171411 4.4216319 0 3 C0 2.01 0 1.02 0 0 Z " fill="#F6B46D" transform="translate(268,4)"/>
<path d="M0 0 C1.32789969 2.1871289 2.04752686 3.47720456 1.8125 6.0625 C0.87605999 8.29554926 -0.11447056 9.49157644 -2 11 C-2.66 11 -3.32 11 -4 11 C-3.71125 10.29875 -3.4225 9.5975 -3.125 8.875 C-1.97866412 5.94547497 -0.97374346 2.99078347 0 0 Z " fill="#F7BC7E" transform="translate(100,453)"/>
<path d="M0 0 C0.66 0 1.32 0 2 0 C0.6302836 3.99500618 -1.25722422 6.80009492 -4 10 C-3.67 7.69 -3.34 5.38 -3 3 C-2.34 3 -1.68 3 -1 3 C-0.67 2.01 -0.34 1.02 0 0 Z " fill="#F9BF7B" transform="translate(148,422)"/>
<path d="M0 0 C2.31 0.33 4.62 0.66 7 1 C7.33 2.65 7.66 4.3 8 6 C4.63408134 4.55746343 2.48952921 2.66735273 0 0 Z " fill="#FABC7C" transform="translate(72,352)"/>
<path d="M0 0 C0.99 0.33 1.98 0.66 3 1 C3 1.66 3 2.32 3 3 C4.65 2.67 6.3 2.34 8 2 C8 2.66 8 3.32 8 4 C5.69 4.33 3.38 4.66 1 5 C0.34 3.68 -0.32 2.36 -1 1 C-0.67 0.67 -0.34 0.34 0 0 Z " fill="#FE992F" transform="translate(255,294)"/>
<path d="M0 0 C1.98 0 3.96 0 6 0 C7.60080151 4.00200378 6.29279692 7.04556236 5 11 C4.67 11 4.34 11 4 11 C4 7.7 4 4.4 4 1 C2.68 0.67 1.36 0.34 0 0 Z " fill="#F7AE60" transform="translate(89,265)"/>
<path d="M0 0 C0 0.66 0 1.32 0 2 C-3.90028225 4.60018816 -7.47434569 4.15085514 -12 4 C-8.36043372 1.57362248 -4.44144233 0 0 0 Z " fill="#F5C58B" transform="translate(53,233)"/>
<path d="M0 0 C-2.66666667 2.66666667 -5.33333333 5.33333333 -8 8 C-8.33 7.01 -8.66 6.02 -9 5 C-8.01 4.67 -7.02 4.34 -6 4 C-6 2.68 -6 1.36 -6 0 C-3 -1 -3 -1 0 0 Z " fill="#F8BD81" transform="translate(335,108)"/>
<path d="M0 0 C1.32 0.33 2.64 0.66 4 1 C2.56570999 1.67354499 1.12742943 2.33859701 -0.3125 3 C-1.51326172 3.556875 -1.51326172 3.556875 -2.73828125 4.125 C-5 5 -5 5 -8 5 C-8 4.34 -8 3.68 -8 3 C-5.29120665 1.64560332 -2.99066732 1.93498549 0 2 C0 1.34 0 0.68 0 0 Z " fill="#F9C589" transform="translate(58,446)"/>
<path d="M0 0 C4.75 0.875 4.75 0.875 7 2 C7 3.65 7 5.3 7 7 C5 5.625 5 5.625 3 4 C3 3.34 3 2.68 3 2 C2.01 1.67 1.02 1.34 0 1 C0 0.67 0 0.34 0 0 Z " fill="#FBC58D" transform="translate(80,359)"/>
<path d="M0 0 C3 1 3 1 3 1 Z M-4 1 C-2.68 1 -1.36 1 0 1 C0.28875 1.639375 0.5775 2.27875 0.875 2.9375 C1.82823451 5.15206079 1.82823451 5.15206079 4 6 C3.67 6.66 3.34 7.32 3 8 C-2.875 4.375 -2.875 4.375 -4 1 Z " fill="#F7B468" transform="translate(68,344)"/>
<path d="M0 0 C1.32 0.99 2.64 1.98 4 3 C-1.75 7 -1.75 7 -4 7 C-4 6.01 -4 5.02 -4 4 C-3.01 3.34 -2.02 2.68 -1 2 C-0.67 1.34 -0.34 0.68 0 0 Z " fill="#F9AF5E" transform="translate(119,281)"/>
<path d="M0 0 C0 0.66 0 1.32 0 2 C-0.66 2 -1.32 2 -2 2 C-2 2.66 -2 3.32 -2 4 C-4.64 4.66 -7.28 5.32 -10 6 C-4.30769231 0 -4.30769231 0 0 0 Z " fill="#F7C085" transform="translate(18,240)"/>
<path d="M0 0 C0.99 0.33 1.98 0.66 3 1 C-0.75 6.875 -0.75 6.875 -3 8 C-3.36923077 3.44615385 -3.36923077 3.44615385 -1.5 1.1875 C-1.005 0.795625 -0.51 0.40375 0 0 Z " fill="#F7B96A" transform="translate(163,233)"/>
<path d="M0 0 C1.8125 0.375 1.8125 0.375 4 1 C4.7425 1.185625 5.485 1.37125 6.25 1.5625 C6.8275 1.706875 7.405 1.85125 8 2 C8 2.66 8 3.32 8 4 C6.35 4.33 4.7 4.66 3 5 C2.67 4.01 2.34 3.02 2 2 C1.01 1.67 0.02 1.34 -1 1 C-0.67 0.67 -0.34 0.34 0 0 Z " fill="#FAB56A" transform="translate(345,155)"/>
<path d="M0 0 C1.2380014 3.57644848 0.74926071 6.33694766 0 10 C-0.99 10 -1.98 10 -3 10 C-2.49287967 6.28111761 -1.88391785 3.26545761 0 0 Z " fill="#F7C388" transform="translate(3,390)"/>
<path d="M0 0 C0 3.16880694 -0.2058242 4.43689172 -2 7 C-4.625 7.75 -4.625 7.75 -7 8 C-5.08864614 4.46399535 -3.37357234 2.21027154 0 0 Z " fill="#F5B977" transform="translate(378,295)"/>
<path d="M0 0 C0.33 0.66 0.66 1.32 1 2 C1.99 2 2.98 2 4 2 C3.67 2.99 3.34 3.98 3 5 C2.34 5 1.68 5 1 5 C0.67 5.99 0.34 6.98 0 8 C-0.99 7.67 -1.98 7.34 -3 7 C-2.01 6.67 -1.02 6.34 0 6 C-0.2784375 4.7934375 -0.2784375 4.7934375 -0.5625 3.5625 C-0.706875 2.716875 -0.85125 1.87125 -1 1 C-0.67 0.67 -0.34 0.34 0 0 Z " fill="#F6B76A" transform="translate(219,293)"/>
<path d="M0 0 C2.97 0.495 2.97 0.495 6 1 C4.35 2.98 2.7 4.96 1 7 C0.31292445 4.50935112 0 2.62113708 0 0 Z " fill="#F9BE79" transform="translate(134,266)"/>
<path d="M0 0 C2.97 0 5.94 0 9 0 C9.33 1.32 9.66 2.64 10 4 C9.01 4 8.02 4 7 4 C7 3.34 7 2.68 7 2 C4.69 1.67 2.38 1.34 0 1 C0 0.67 0 0.34 0 0 Z " fill="#F7DEB5" transform="translate(210,188)"/>
<path d="M0 0 C4.875 4.625 4.875 4.625 6 8 C5.34 8.66 4.68 9.32 4 10 C4 9.34 4 8.68 4 8 C3.34 8 2.68 8 2 8 C1.34 5.36 0.68 2.72 0 0 Z " fill="#F9BE81" transform="translate(71,134)"/>
<path d="M0 0 C6.625 0.625 6.625 0.625 10 4 C7.03 3.67 4.06 3.34 1 3 C0.67 2.01 0.34 1.02 0 0 Z " fill="#F8B66F" transform="translate(394,82)"/>
<path d="M0 0 C2.9375 0.8125 2.9375 0.8125 6 2 C6.33 2.99 6.66 3.98 7 5 C7.66 5.66 8.32 6.32 9 7 C6 7 6 7 4.39453125 5.46875 C3.87246094 4.8190625 3.35039062 4.169375 2.8125 3.5 C2.28269531 2.8503125 1.75289062 2.200625 1.20703125 1.53125 C0.80871094 1.0259375 0.41039062 0.520625 0 0 Z " fill="#FAC891" transform="translate(163,426)"/>
<path d="M0 0 C1.98 1.65 3.96 3.3 6 5 C5.38125 5.144375 4.7625 5.28875 4.125 5.4375 C1.96741678 5.93152225 1.96741678 5.93152225 0 7 C0 4.69 0 2.38 0 0 Z " fill="#FAAE64" transform="translate(179,356)"/>
<path d="M0 0 C0 0.33 0 0.66 0 1 C-2.31 1.33 -4.62 1.66 -7 2 C-7 2.66 -7 3.32 -7 4 C-8.98 4 -10.96 4 -13 4 C-8.61350163 0.52105302 -5.57581513 -0.123907 0 0 Z " fill="#F8D39E" transform="translate(300,271)"/>
<path d="M0 0 C3.63 0 7.26 0 11 0 C11.33 0.99 11.66 1.98 12 3 C6.06 2.01 6.06 2.01 0 1 C0 0.67 0 0.34 0 0 Z " fill="#F9C584" transform="translate(441,265)"/>
<path d="M0 0 C1.32 0.33 2.64 0.66 4 1 C1.36 2.65 -1.28 4.3 -4 6 C-4 4.68 -4 3.36 -4 2 C-2.68 2 -1.36 2 0 2 C0 1.34 0 0.68 0 0 Z " fill="#F7B77A" transform="translate(195,201)"/>
<path d="M0 0 C-2.06756277 2.7972908 -3.14440371 3.02692273 -6.6875 3.6875 C-7.780625 3.790625 -8.87375 3.89375 -10 4 C-7.75282684 -0.49434631 -4.47478037 -0.19887913 0 0 Z " fill="#F8BC81" transform="translate(486,201)"/>
<path d="M0 0 C2.64 0 5.28 0 8 0 C5.93243723 2.7972908 4.85559629 3.02692273 1.3125 3.6875 C0.219375 3.790625 -0.87375 3.89375 -2 4 C-1.34 2.68 -0.68 1.36 0 0 Z " fill="#FAB979" transform="translate(54,201)"/>
<path d="M0 0 C0.66 0 1.32 0 2 0 C1.29445932 3.66881155 -0.27735506 6.70450534 -2 10 C-2.33 10 -2.66 10 -3 10 C-3 8.35 -3 6.7 -3 5 C-2.34 5 -1.68 5 -1 5 C-0.67 3.35 -0.34 1.7 0 0 Z " fill="#F6C183" transform="translate(504,177)"/>
<path d="M0 0 C-0.66 0.66 -1.32 1.32 -2 2 C-2.66 2 -3.32 2 -4 2 C-5.62514468 3.45833358 -5.62514468 3.45833358 -7 5 C-7 3.35 -7 1.7 -7 0 C-4.3333581 -1.33332095 -2.83319697 -0.67102033 0 0 Z " fill="#FAC07A" transform="translate(158,416)"/>
<path d="M0 0 C0 3.25811062 -0.5522078 5.10441559 -2 8 C-2.99 8.33 -3.98 8.66 -5 9 C-3.7508258 5.54074837 -2.32472205 2.85306797 0 0 Z " fill="#FAC891" transform="translate(9,381)"/>
<path d="M0 0 C0.66 0.33 1.32 0.66 2 1 C-1.625 6.875 -1.625 6.875 -5 8 C-4.34 6.35 -3.68 4.7 -3 3 C-2.34 3 -1.68 3 -1 3 C-0.67 2.01 -0.34 1.02 0 0 Z " fill="#F9C491" transform="translate(11,298)"/>
<path d="M0 0 C1.65 0 3.3 0 5 0 C5 0.66 5 1.32 5 2 C3.02 2.99 1.04 3.98 -1 5 C-0.67 3.35 -0.34 1.7 0 0 Z " fill="#F7B66B" transform="translate(380,276)"/>
<path d="M0 0 C-0.5625 1.9375 -0.5625 1.9375 -2 4 C-5.625 4.75 -5.625 4.75 -9 5 C-6.54789272 1.19923372 -6.54789272 1.19923372 -3.9375 0.25 C-2 0 -2 0 0 0 Z " fill="#F5A95C" transform="translate(250,273)"/>
<path d="M0 0 C0.99 0 1.98 0 3 0 C3.91892116 3.67568464 3.95904856 5.16380575 3 9 C2.01 6.03 1.02 3.06 0 0 Z " fill="#F8C588" transform="translate(335,218)"/>
<path d="M0 0 C0.721875 0.144375 1.44375 0.28875 2.1875 0.4375 C3.5796875 0.7159375 3.5796875 0.7159375 5 1 C6.66666667 1.33333333 8.33333333 1.66666667 10 2 C10 2.66 10 3.32 10 4 C3.47692308 3.38461538 3.47692308 3.38461538 1.0625 1.4375 C0.711875 0.963125 0.36125 0.48875 0 0 Z " fill="#F8BE81" transform="translate(21,201)"/>
<path d="M0 0 C3.375 0.25 3.375 0.25 7 1 C8.4375 3.0625 8.4375 3.0625 9 5 C5.54074837 3.7508258 2.85306797 2.32472205 0 0 Z " fill="#F8BD7C" transform="translate(301,199)"/>
<path d="M0 0 C-1.04874998 2.62187494 -1.64931313 3.79371361 -4.125 5.25 C-4.74375 5.4975 -5.3625 5.745 -6 6 C-6 4.68 -6 3.36 -6 2 C-3 0 -3 0 0 0 Z " fill="#F8BD7C" transform="translate(496,193)"/>
<path d="M0 0 C0.66 0 1.32 0 2 0 C0.4169423 4.2742558 -2.50568404 6.26531794 -6 9 C-5.34 7.02 -4.68 5.04 -4 3 C-3.01 3 -2.02 3 -1 3 C-0.67 2.01 -0.34 1.02 0 0 Z " fill="#F8A148" transform="translate(100,192)"/>
<path d="M0 0 C0.33 0 0.66 0 1 0 C1.125 7.625 1.125 7.625 0 11 C-0.66 11 -1.32 11 -2 11 C-1 3.57142857 -1 3.57142857 0 0 Z " fill="#F8C588" transform="translate(105,169)"/>
<path d="M0 0 C0 0.99 0 1.98 0 3 C-2.25 4.75 -2.25 4.75 -5 6 C-6.32 5.67 -7.64 5.34 -9 5 C-6.03 3.35 -3.06 1.7 0 0 Z " fill="#FACA92" transform="translate(189,138)"/>
<path d="M0 0 C0.99 0 1.98 0 3 0 C4.32 2.31 5.64 4.62 7 7 C6.01 7 5.02 7 4 7 C2.02 3.535 2.02 3.535 0 0 Z " fill="#F6BA6F" transform="translate(176,113)"/>
<path d="M0 0 C0.66 0 1.32 0 2 0 C2.1875 2.8125 2.1875 2.8125 2 6 C1.01 6.99 0.02 7.98 -1 9 C-0.67 6.03 -0.34 3.06 0 0 Z " fill="#F7B56F" transform="translate(408,108)"/>
<path d="M0 0 C3.67230705 3.07999946 4.56802365 5.2482602 5 10 C4.67 9.01 4.34 8.02 4 7 C3.01 6.67 2.02 6.34 1 6 C0.67 4.02 0.34 2.04 0 0 Z " fill="#F7BD78" transform="translate(129,88)"/>
<path d="M0 0 C2.64 1.65 5.28 3.3 8 5 C6.68 5.33 5.36 5.66 4 6 C1.75 4.1875 1.75 4.1875 0 2 C0 1.34 0 0.68 0 0 Z " fill="#F7C17F" transform="translate(199,87)"/>
<path d="M0 0 C1.65 0 3.3 0 5 0 C5 0.66 5 1.32 5 2 C5.66 2 6.32 2 7 2 C7.33 2.99 7.66 3.98 8 5 C4.62496331 3.8141763 2.35277269 2.72426311 0 0 Z " fill="#F8BF7C" transform="translate(200,457)"/>
<path d="M0 0 C0.33 0.66 0.66 1.32 1 2 C0.06421005 4.35981813 -0.93347808 6.69631264 -2 9 C-2.33 9 -2.66 9 -3 9 C-3.1875 5.625 -3.1875 5.625 -3 2 C-2.01 1.34 -1.02 0.68 0 0 Z " fill="#F9BA79" transform="translate(143,432)"/>
<path d="M0 0 C2.97 0.99 5.94 1.98 9 3 C5.16380575 3.95904856 3.67568464 3.91892116 0 3 C0 2.01 0 1.02 0 0 Z " fill="#F8BD81" transform="translate(38,300)"/>
<path d="M0 0 C2.97 0.495 2.97 0.495 6 1 C6 1.33 6 1.66 6 2 C4.35 2 2.7 2 1 2 C0.67 2.99 0.34 3.98 0 5 C-0.66 4.67 -1.32 4.34 -2 4 C-1.34 2.68 -0.68 1.36 0 0 Z " fill="#F5A94E" transform="translate(257,273)"/>
<path d="M0 0 C1.65 0 3.3 0 5 0 C3.69593116 2.01920337 2.36176581 4.01924973 1 6 C0.67 6 0.34 6 0 6 C0 4.02 0 2.04 0 0 Z " fill="#F6B979" transform="translate(147,252)"/>
<path d="M0 0 C0 1.65 0 3.3 0 5 C-0.99 5 -1.98 5 -3 5 C-3.33 5.99 -3.66 6.98 -4 8 C-3.74438677 5.6568787 -3.40729228 3.32156597 -3 1 C-1 0 -1 0 0 0 Z " fill="#F9AD5B" transform="translate(507,172)"/>
<path d="M0 0 C3.26460973 1.80412643 4.88929795 2.83394693 7 6 C6.01 6.495 6.01 6.495 5 7 C4.67 6.34 4.34 5.68 4 5 C1.97536745 4.34786708 1.97536745 4.34786708 0 4 C0 2.68 0 1.36 0 0 Z " fill="#F6A960" transform="translate(155,160)"/>
<path d="M0 0 C0.33 1.32 0.66 2.64 1 4 C0.34 4 -0.32 4 -1 4 C-1.33 5.65 -1.66 7.3 -2 9 C-2.99 8.67 -3.98 8.34 -5 8 C-3.35 5.36 -1.7 2.72 0 0 Z " fill="#FBCC93" transform="translate(362,142)"/>
<path d="M0 0 C0.66 0.33 1.32 0.66 2 1 C-0.25 3.5625 -0.25 3.5625 -3 6 C-4.32 5.67 -5.64 5.34 -7 5 C-4.69 3.35 -2.38 1.7 0 0 Z " fill="#F7C693" transform="translate(300,90)"/>
<path d="M0 0 C-3.00617269 3.00617269 -5.82381598 2.59585316 -10 3 C-6.68152292 -0.06320961 -4.44849969 -0.3033068 0 0 Z " fill="#F9C890" transform="translate(308,439)"/>
<path d="M0 0 C2.97 0.495 2.97 0.495 6 1 C6.33 2.65 6.66 4.3 7 6 C5.68 5.34 4.36 4.68 3 4 C3 3.34 3 2.68 3 2 C2.01 1.67 1.02 1.34 0 1 C0 0.67 0 0.34 0 0 Z " fill="#F9BF85" transform="translate(174,437)"/>
<path d="M0 0 C1.98 0.99 1.98 0.99 4 2 C4 2.66 4 3.32 4 4 C4.66 4.33 5.32 4.66 6 5 C4.68 5 3.36 5 2 5 C1.34 4.34 0.68 3.68 0 3 C0 2.01 0 1.02 0 0 Z " fill="#F5B667" transform="translate(285,295)"/>
<path d="M0 0 C0.33 0 0.66 0 1 0 C1.36923077 5.53846154 1.36923077 5.53846154 -0.5 7.875 C-1.2425 8.431875 -1.2425 8.431875 -2 9 C-2 7.02 -2 5.04 -2 3 C-1.34 3 -0.68 3 0 3 C0 2.01 0 1.02 0 0 Z " fill="#F9AE5E" transform="translate(310,289)"/>
<path d="M0 0 C0.66 0.33 1.32 0.66 2 1 C1.67 1.99 1.34 2.98 1 4 C0.01 4 -0.98 4 -2 4 C-2.33 5.32 -2.66 6.64 -3 8 C-3.33 7.01 -3.66 6.02 -4 5 C-2.0625 2.3125 -2.0625 2.3125 0 0 Z " fill="#F7C27B" transform="translate(200,274)"/>
<path d="M0 0 C-3.13498292 1.85776765 -5.37471432 2.20140476 -9 2 C-9 1.34 -9 0.68 -9 0 C-5.93109813 -1.53445094 -3.29905734 -0.54984289 0 0 Z " fill="#F9BE7A" transform="translate(413,266)"/>
<path d="M0 0 C2.97 0.495 2.97 0.495 6 1 C6.33 2.65 6.66 4.3 7 6 C1.125 2.25 1.125 2.25 0 0 Z " fill="#F7BE7B" transform="translate(223,73)"/>
</svg>
