<?xml version="1.0" encoding="UTF-8"?>
<svg version="1.1" xmlns="http://www.w3.org/2000/svg" width="509" height="491" viewBox="0 0 509 491">
  <!-- BizBuch Splash Logo - Calligraphic B -->
  
  <g fill="#FFFFFF" transform="translate(254.5, 245.5)">
    <!-- Calligraphic B - Flowing elegant strokes -->
    
    <!-- Main stem with calligraphic thick-thin variation -->
    <path d="M-70,-180 
             Q-90,-180 -90,-160
             L-90,160
             Q-90,180 -70,180
             L-50,180
             Q-30,180 -30,160
             L-30,-100
             Q-30,-120 -50,-120
             L-70,-120
             Q-80,-120 -80,-130
             L-80,-160
             Q-80,-180 -70,-180
             Z"/>
    
    <!-- Top bowl - elegant curve -->
    <path d="M-30,-160
             Q-30,-180 0,-180
             L60,-180
             Q120,-180 120,-120
             Q120,-60 60,-40
             L-30,-40
             L-30,-70
             L50,-70
             Q80,-70 80,-110
             Q80,-150 50,-150
             L0,-150
             Q-30,-150 -30,-130
             Z"/>
    
    <!-- Bottom bowl - larger elegant curve -->
    <path d="M-30,-20
             Q-30,-40 0,-40
             L70,-40
             Q140,-40 140,50
             Q140,140 70,160
             L-30,160
             L-30,130
             L60,130
             Q100,130 100,60
             Q100,-10 60,-10
             L0,-10
             Q-30,-10 -30,10
             Z"/>
    
    <!-- Decorative flourish at top -->
    <path d="M60,-180
             Q100,-200 120,-180
             Q140,-160 120,-140
             L110,-150
             Q120,-160 110,-170
             Q100,-180 80,-175
             Z"
          opacity="0.8"/>
    
    <!-- Decorative tail flourish -->
    <path d="M70,160
             Q120,170 130,200
             Q140,230 110,240
             L105,230
             Q125,220 120,200
             Q115,180 80,170
             Z"
          opacity="0.8"/>
  </g>
</svg>
