<?xml version="1.0" encoding="UTF-8"?>
<svg version="1.1" xmlns="http://www.w3.org/2000/svg" width="509" height="491">
<path d="M0 0 C0.66 0 1.32 0 2 0 C3.5036019 3.00720379 3.01004622 6.08340042 2.9375 9.375 C2.66545895 39.44525148 10.6648996 66.37266021 32.0625 88.3125 C33.36451915 89.55276331 34.67686234 90.78229163 36 92 C36.64710938 92.61617188 37.29421875 93.23234375 37.9609375 93.8671875 C41.95991564 97.55004089 45.99904567 100.35416631 50.82421875 102.859375 C52.37319794 103.67140718 53.89072991 104.54465944 55.3828125 105.45703125 C76.13727705 117.69287229 102.90555532 120.90698937 126.25 115.375 C141.81568807 111.23853098 154.94780441 104.24981881 167.75 94.5390625 C170 93 170 93 172 93 C172.66 91.68 173.32 90.36 174 89 C174.66 89 175.32 89 176 89 C176.39058594 88.12601563 176.39058594 88.12601563 176.7890625 87.234375 C178.0820048 84.84868792 179.51016895 83.21712136 181.375 81.25 C185.18104911 77.06403674 188.57591444 72.66683544 191.9375 68.125 C196.11493374 62.48693423 200.37898777 56.96350664 204.8671875 51.56640625 C206.30448039 49.83691645 207.72613558 48.0943254 209.1328125 46.33984375 C223.26851831 28.73354351 238.15679903 14.50131279 260 7 C264.51282051 7.51282051 264.51282051 7.51282051 266 9 C267.41713039 29.73915822 263.93347279 50.49880382 257 70 C256.75878418 70.68384766 256.51756836 71.36769531 256.26904297 72.07226562 C252.75005661 81.85287101 248.16149912 90.99979802 243 100 C242.44570313 100.96679688 241.89140625 101.93359375 241.3203125 102.9296875 C237.00836854 110.04748973 231.81212649 116.25984851 226.32714844 122.48486328 C225.14135832 123.83861852 223.97914966 125.21294583 222.8203125 126.58984375 C208.28001597 143.51694368 190.35425909 155.07385227 170.4375 164.6875 C169.65834229 165.06825684 168.87918457 165.44901367 168.07641602 165.84130859 C161.35329875 169.03769478 154.52447996 172 147 172 C147.16604736 172.63389648 147.33209473 173.26779297 147.50317383 173.92089844 C149.09800241 180.01255724 150.68553988 186.10607151 152.26904297 192.20068359 C152.86041223 194.4654264 153.45979175 196.72759478 154.06640625 198.98828125 C154.46666016 200.51001953 154.46666016 200.51001953 154.875 202.0625 C155.21144531 203.31740234 155.21144531 203.31740234 155.5546875 204.59765625 C156.32530593 208.75493986 156.85627109 211.71345268 154.4375 215.34765625 C146.01822242 221.054955 128.20072066 216.31838603 118.7109375 214.54785156 C91.70998654 209.09124728 67.55088738 199.61141324 44.87890625 183.96875 C42.21229115 182.04958765 42.21229115 182.04958765 40 181 C40 180.34 40 179.68 40 179 C39.14341797 178.60361328 39.14341797 178.60361328 38.26953125 178.19921875 C30.5283726 174.10879585 24.26058555 167.44063673 18.125 161.3125 C17.48264404 160.67094971 16.84028809 160.02939941 16.1784668 159.3684082 C7 150.08140613 7 150.08140613 7 147 C3.42895561 148.87949705 1.45255699 150.17053157 0 154 C-0.66 154 -1.32 154 -2 154 C-2.40412109 155.29744141 -2.40412109 155.29744141 -2.81640625 156.62109375 C-3.97443306 159.92701188 -5.38016122 162.92800896 -6.9375 166.0625 C-12.39974724 177.88634754 -13.76709863 190.35370073 -15.55517578 203.15112305 C-15.79276611 204.79721558 -15.79276611 204.79721558 -16.03515625 206.4765625 C-16.1731665 207.46736816 -16.31117676 208.45817383 -16.45336914 209.47900391 C-17 212 -17 212 -19 215 C-19.66 215 -20.32 215 -21 215 C-21.33 215.99 -21.66 216.98 -22 218 C-27.33487768 222.2436527 -32.08563742 222.65926278 -38.8203125 222.46484375 C-43.28077168 221.81276188 -46.78876624 220.20153215 -50 217 C-50 216.34 -50 215.68 -50 215 C-50.66 215 -51.32 215 -52 215 C-55.38806587 207.5180212 -56.46844921 200.78411428 -54.015625 192.79296875 C-52.74793285 189.49462159 -51.39043138 186.24830122 -50 183 C-49.25454359 181.08961002 -48.52429374 179.17318611 -47.8125 177.25 C-47.50957031 176.45078125 -47.20664063 175.6515625 -46.89453125 174.828125 C-44.41792207 166.99814663 -43.61185684 159.64474458 -43.625 151.4375 C-43.62661133 150.38554443 -43.62822266 149.33358887 -43.62988281 148.24975586 C-43.82044046 136.02510907 -46.39088175 124.93450678 -52 114 C-52.51240234 112.92298828 -52.51240234 112.92298828 -53.03515625 111.82421875 C-54.7550133 108.24717766 -56.57364184 105.1542656 -59 102 C-59 101.34 -59 100.68 -59 100 C-59.66 100 -60.32 100 -61 100 C-62.41015625 98.3125 -62.41015625 98.3125 -64.0625 96 C-75.75891662 80.61378597 -94.61814649 70.04595927 -113.51171875 66.47265625 C-117.13922146 65.98113573 -120.71971624 65.74545883 -124.375 65.5625 C-132.21726319 65.09757836 -137.10045932 63.38022957 -142.375 57.5 C-146.53403606 52.38833557 -147.52452983 48.38107774 -147.3671875 41.81640625 C-146.52914651 35.38845356 -142.92681152 31.39166299 -137.9375 27.5 C-132.30552069 24.1430074 -127.38649254 23.77460075 -121 25 C-114.0143914 27.21162225 -107.33558164 30.29532929 -100.8203125 33.625 C-85.48827038 41.09990142 -63.39931623 40.4428401 -47.50585938 35.12426758 C-45.65692535 34.45262059 -43.82755713 33.72780603 -42 33 C-41.00355469 32.61585938 -40.00710937 32.23171875 -38.98046875 31.8359375 C-27.18332596 26.87404912 -17.46042827 20.13165375 -9 10.5625 C-7.97519531 9.40621094 -7.97519531 9.40621094 -6.9296875 8.2265625 C-5.28364088 6.32727793 -3.69583176 4.39871598 -2.125 2.4375 C-1.42375 1.633125 -0.7225 0.82875 0 0 Z " fill="#FEFEFE" transform="translate(150,269)"/>
<path d="M0 0 C1.5 2.1875 1.5 2.1875 2 4 C2.66 4 3.32 4 4 4 C5.4239869 5.71519077 6.7663216 7.4987912 8.0625 9.3125 C8.77535156 10.29863281 9.48820312 11.28476563 10.22265625 12.30078125 C12 15 12 15 13 18 C13.66 18 14.32 18 15 18 C15.0825 18.61875 15.165 19.2375 15.25 19.875 C16.24516334 22.69462947 17.37128993 22.71160171 20 24 C21.2176465 25.02781297 22.40369856 26.09377164 23.5625 27.1875 C32.01993751 34.69308569 41.26704617 39.53316093 52 43 C52.77335693 43.26256592 53.54671387 43.52513184 54.34350586 43.7956543 C62.12436038 46.21692159 69.45694168 46.41733133 77.5625 46.3125 C78.81224609 46.31572266 80.06199219 46.31894531 81.34960938 46.32226562 C101.96884728 46.20307928 119.14226423 38.9977629 135 26 C135.73476563 25.24847656 136.46953125 24.49695313 137.2265625 23.72265625 C139 22 139 22 141 22 C141.66 20.68 142.32 19.36 143 18 C143.66 18 144.32 18 145 18 C145.26167969 17.44183594 145.52335938 16.88367188 145.79296875 16.30859375 C149.41887949 9.37359942 154.39524439 1.68610744 161.25 -2.3125 C167.29091579 -3.82272895 173.30380931 -3.60811632 179.07421875 -1.1796875 C183.42238653 1.48389601 187.2992561 5.47893288 188.6796875 10.4453125 C189.41062823 16.27501054 190.12217199 22.79638001 187 28 C182.86186076 32.91404034 177.45296312 36.65101203 172 40 C171.34 40 170.68 40 170 40 C170 40.66 170 41.32 170 42 C168.39299767 43.33966923 166.73706159 44.62080161 165.0625 45.875 C156.3327722 52.86327631 149.77486419 61.89871965 145 72 C144.49597656 73.06347656 143.99195313 74.12695312 143.47265625 75.22265625 C136.73374593 90.62823362 134.41073021 107.25782488 137.1875 123.875 C137.31624512 124.65584961 137.44499023 125.43669922 137.57763672 126.24121094 C138.59356258 131.86662404 140.30762895 136.68251108 142.92578125 141.78515625 C144.23137269 144.47704841 144.75880113 147.02521394 145 150 C142.66404762 149.68554487 140.33094534 149.3496418 138 149 C137.278125 148.9175 136.55625 148.835 135.8125 148.75 C134 148 134 148 132.4453125 145.7421875 C129.14778507 142.04432128 125.52378878 140.41016542 121.0625 138.375 C120.20422607 137.97966064 119.34595215 137.58432129 118.46166992 137.17700195 C111.72073763 134.15847584 105.30125358 132.18645371 98 131 C96.1664186 130.67326407 94.33311047 130.34499276 92.5 130.015625 C83.50267307 128.43130366 74.53476781 126.97756262 65.4375 126.125 C39.07079289 123.47500181 13.77071618 118.40165656 -7 101 C-9 98 -9 98 -8.8125 95.5 C-7.67469827 91.99907159 -6.05017747 90.56296109 -2.82348633 88.83325195 C-1.59021606 88.29124146 -1.59021606 88.29124146 -0.33203125 87.73828125 C0.56064453 87.34189453 1.45332031 86.94550781 2.37304688 86.53710938 C3.30181641 86.13298828 4.23058594 85.72886719 5.1875 85.3125 C6.12787109 84.89677734 7.06824219 84.48105469 8.03710938 84.05273438 C10.35541165 83.0289156 12.67635433 82.01161857 15 81 C14.21732511 76.37164415 12.41178614 72.913574 10 68.9375 C5.57354302 61.59360546 5.57354302 61.59360546 5 58 C4.34 58 3.68 58 3 58 C1.84736155 56.33884459 0.69641256 54.67648759 -0.4453125 53.0078125 C-3.16326066 49.49769855 -6.5684794 46.78811049 -10 44 C-10.78246094 43.35417969 -11.56492188 42.70835938 -12.37109375 42.04296875 C-16.14154502 39.11288552 -20.15089823 36.58857517 -24.16015625 34 C-30.67403664 29.4125079 -30.67403664 29.4125079 -31.75 24.75 C-32.75043937 9.74340949 -32.75043937 9.74340949 -28.77734375 4.3359375 C-20.68825998 -4.42184386 -10.27311004 -5.04644002 0 0 Z " fill="#FEFEFE" transform="translate(174,57)"/>
<path d="M0 0 C4.79200809 4.41943909 7.01432444 9.52432586 7.5 16 C7.30816993 21.56307214 5.22756305 25.62750941 2.59790039 30.46020508 C-7.19588281 48.62317614 -7.82722914 72.55796936 -2.2578125 92.14453125 C0.86322454 100.87267276 5.66806981 112.87847796 12.44287109 119.45849609 C13.8125 120.875 13.8125 120.875 13.8125 122.875 C14.4725 122.875 15.1325 122.875 15.8125 122.875 C16.83899277 124.00025155 17.80837696 125.17782645 18.75 126.375 C23.09761567 131.50482267 28.27377966 135.1247427 33.8125 138.875 C34.76253906 139.54917969 35.71257812 140.22335938 36.69140625 140.91796875 C40.06398493 143.03268955 43.47056492 144.56245951 47.1875 145.9375 C47.88012939 146.19499023 48.57275879 146.45248047 49.28637695 146.71777344 C57.80510216 149.75255126 66.51590582 151.17748278 75.4609375 152.35546875 C83.43416288 153.42282272 88.96937107 154.28367925 94.1875 160.875 C97.58596247 167.14908456 97.76871139 174.11157089 95.8125 180.9375 C95.4825 181.906875 95.1525 182.87625 94.8125 183.875 C94.1525 183.875 93.4925 183.875 92.8125 183.875 C92.7815625 184.74125 92.7815625 184.74125 92.75 185.625 C91.27392219 189.16758673 88.18672213 190.30576569 84.8125 191.875 C77.77639787 194.22036738 71.37145366 192.98772377 64.8125 189.875 C63.26979552 189.06447225 61.72819895 188.25183354 60.1875 187.4375 C39.79383897 177.10056036 17.42170591 177.43149079 -4.05859375 183.71484375 C-13.97879382 187.06957033 -23.35991317 191.89363878 -31.1875 198.875 C-31.8475 198.875 -32.5075 198.875 -33.1875 198.875 C-33.1875 199.535 -33.1875 200.195 -33.1875 200.875 C-34.66454212 202.12727484 -36.14577399 203.37666522 -37.6796875 204.55859375 C-39.45512944 205.99264091 -39.45512944 205.99264091 -41.1875 208.875 C-41.8475 208.875 -42.5075 208.875 -43.1875 208.875 C-43.435 209.4525 -43.6825 210.03 -43.9375 210.625 C-45.35433317 213.1752997 -47.06377537 214.89285701 -49.1875 216.875 C-50.1775 216.545 -51.1675 216.215 -52.1875 215.875 C-52.20208252 214.97894043 -52.21666504 214.08288086 -52.23168945 213.15966797 C-52.2935621 209.76344975 -52.36784992 206.36793555 -52.44995117 202.97216797 C-52.48275027 201.51588804 -52.51091429 200.05949466 -52.53393555 198.60302734 C-52.74981145 185.29221113 -54.38279319 173.24007914 -59.8359375 160.9296875 C-61.28627683 157.65175295 -62.6046044 154.33965071 -63.90625 151 C-64.59267578 149.24429688 -64.59267578 149.24429688 -65.29296875 147.453125 C-66.22265625 145.06770833 -67.15234375 142.68229167 -68.08203125 140.296875 C-70.25763038 134.73224399 -72.46229839 129.1891776 -74.79296875 123.6875 C-82.56538916 105.08536363 -90.03430502 80.94417408 -82.6484375 61.0625 C-82.16632813 60.010625 -81.68421875 58.95875 -81.1875 57.875 C-75.69439362 58.34028208 -72.23477592 59.697525 -67.625 62.6875 C-66.55121094 63.37457031 -65.47742188 64.06164062 -64.37109375 64.76953125 C-62.20288297 66.20347678 -60.04963583 67.66024833 -57.91015625 69.13671875 C-55.44491944 71.05437562 -55.44491944 71.05437562 -53.1875 70.875 C-40.88641785 54.76945946 -35.07814188 36.56775426 -34.59375 16.56640625 C-33.95806055 10.79018963 -31.62163951 5.58104303 -28.1875 0.875 C-19.68430358 -5.77967546 -9.0675327 -6.0450218 0 0 Z " fill="#FEFEFE" transform="translate(406.1875,85.125)"/>
<path d="M0 0 C5.2082382 4.92671181 5.75614104 11.18534837 6.38671875 17.98828125 C8.44955098 40.16250278 14.97304219 62.08834845 32.5625 77.125 C33.22378906 77.64320313 33.88507813 78.16140625 34.56640625 78.6953125 C35.03949219 79.12585938 35.51257813 79.55640625 36 80 C36 80.66 36 81.32 36 82 C36.81404297 82.37511719 36.81404297 82.37511719 37.64453125 82.7578125 C40.48918759 84.25797953 43.04404105 86.043584 45.6875 87.875 C54.81356788 93.9517327 63.2056469 96.73395339 73.81640625 99.0703125 C74.84531982 99.30089355 74.84531982 99.30089355 75.89501953 99.53613281 C77.35125885 99.85703918 78.8109097 100.16270455 80.27294922 100.45605469 C82.20551788 100.87365139 84.10765763 101.42706982 86 102 C86.33 102.99 86.66 103.98 87 105 C84.22404884 108.33737949 80.48023509 110.00243108 76.6875 111.9375 C72.88368306 113.89020128 69.16872799 115.82346265 65.64453125 118.25390625 C63 120 63 120 61 120 C61 120.66 61 121.32 61 122 C56.52941176 126 56.52941176 126 54 126 C53.67 126.99 53.34 127.98 53 129 C52.34 129 51.68 129 51 129 C50.938125 129.556875 50.87625 130.11375 50.8125 130.6875 C49.89152809 133.30872775 48.54446953 134.56682563 46.53515625 136.4296875 C43.91052658 139.11442319 41.7725486 142.18720112 39.55078125 145.20703125 C39.03902344 145.79871094 38.52726563 146.39039063 38 147 C37.34 147 36.68 147 36 147 C35.67 148.32 35.34 149.64 35 151 C34.34 151 33.68 151 33 151 C32.7421875 151.55171875 32.484375 152.1034375 32.21875 152.671875 C30.82036875 155.34314175 29.21236695 157.76851909 27.5 160.25 C26.8915625 161.14203125 26.283125 162.0340625 25.65625 162.953125 C25.1096875 163.62859375 24.563125 164.3040625 24 165 C23.34 165 22.68 165 22 165 C21.77699219 165.51949219 21.55398437 166.03898438 21.32421875 166.57421875 C19.49744883 169.92060258 17.17259574 172.83336925 14.8125 175.8125 C14.32144775 176.43398926 13.83039551 177.05547852 13.32446289 177.69580078 C9.80201681 182.10391356 6.21668038 186.23190264 2 190 C1.34 190 0.68 190 0 190 C-0.25394531 190.59167969 -0.50789063 191.18335938 -0.76953125 191.79296875 C-5.82233737 200.85593846 -19.50255712 205.86049114 -28.89453125 208.953125 C-31.3125 209.5625 -31.3125 209.5625 -35 210 C-37 208 -37 208 -37.23046875 204.25390625 C-37.22778227 202.69004088 -37.21276623 201.12616356 -37.1875 199.5625 C-37.18105469 198.75441895 -37.17460938 197.94633789 -37.16796875 197.11376953 C-37.09039594 191.04248486 -36.74366269 185.02897967 -36 179 C-56.88214145 176.78157389 -75.72704246 180.02258021 -94.59765625 189.2734375 C-101.33447594 192.5320707 -106.57013646 193.14328785 -113.75 190.75 C-120.61934369 187.05112263 -123.68631372 183.42102567 -126 176 C-127.0107563 168.92470588 -124.84062029 163.95085122 -121 158 C-114.18423019 151.00946686 -104.36936355 151.2188848 -95.20507812 150.3203125 C-72.71553843 147.81989621 -53.19057463 134.54508475 -39.1875 117.1875 C-34.51600427 111.20496122 -31.46252527 105.20190922 -29 98 C-28.63390625 97.03964844 -28.2678125 96.07929688 -27.890625 95.08984375 C-21.05806527 77.09248533 -19.60352875 55.13037465 -27 37 C-28.49459792 33.93454915 -30.06737526 30.92159111 -31.66015625 27.90625 C-34.59779751 21.53422348 -35.90511556 14.89261379 -33.9375 8.0625 C-32.35547821 4.19144668 -30.23932066 1.68626592 -27 -1 C-26.0409375 -1.86625 -26.0409375 -1.86625 -25.0625 -2.75 C-17.31657393 -7.44450065 -6.90167493 -4.96920595 0 0 Z " fill="#FEFEFE" transform="translate(129,86)"/>
<path d="M0 0 C4.53069016 3.58596475 7.94401211 7.36437535 11 12.25 C11.38800781 12.82492188 11.77601563 13.39984375 12.17578125 13.9921875 C17.91409254 23.04828604 17.85043908 33.88527372 17 44.25 C16.14343603 47.63245432 14.85495989 50.30823846 13 53.25 C12.51789063 54.02988281 12.03578125 54.80976563 11.5390625 55.61328125 C10.08266728 57.87180276 8.56542857 60.06607785 7 62.25 C6.0409375 63.61125 6.0409375 63.61125 5.0625 65 C-2.04481548 72.75343507 -11.02234789 76.21464409 -21.375 77.125 C-35.63645364 77.73125613 -44.27362055 74.38166109 -55 65.25 C-63.25648146 57.36459636 -67.17886474 47.54060979 -68 36.25 C-68.15236712 22.49886739 -62.88328324 12.44122399 -53.5 2.69140625 C-38.70190134 -10.80345076 -16.12155651 -11.14251797 0 0 Z " fill="#FEFEFE" transform="translate(491,128.75)"/>
<path d="M0 0 C11.50230212 -0.63548631 23.41901647 3.77173946 32.12109375 11.1953125 C35.24575296 14.63085686 37.74596453 18.21068395 40.12109375 22.1953125 C40.57613281 22.91847656 41.03117187 23.64164063 41.5 24.38671875 C46.25787774 33.65380467 45.62698169 47.05000811 43.203125 56.94140625 C42.04569534 59.881802 40.75368647 62.49309007 39.12109375 65.1953125 C38.68667969 65.9378125 38.25226563 66.6803125 37.8046875 67.4453125 C34.02554905 73.13017033 28.90561348 76.70511224 23.12109375 80.1953125 C22.43402344 80.62070313 21.74695312 81.04609375 21.0390625 81.484375 C12.1012749 86.23524489 -0.57446847 86.26254163 -10.28125 84.125 C-19.73184945 80.7426802 -29.97218594 73.50338435 -34.44140625 64.3828125 C-35.06208984 63.13564453 -35.06208984 63.13564453 -35.6953125 61.86328125 C-40.19841446 51.71272469 -41.16391079 37.98501589 -37.86328125 27.2265625 C-36.05182067 22.81794759 -33.99953872 18.82628969 -30.87890625 15.1953125 C-30.21890625 15.1953125 -29.55890625 15.1953125 -28.87890625 15.1953125 C-28.65460937 14.60878906 -28.4303125 14.02226562 -28.19921875 13.41796875 C-24.34418711 6.92828531 -14.85629368 3.32400697 -7.87890625 1.1953125 C-5.23682635 0.57695337 -2.69207146 0.27984111 0 0 Z " fill="#FEFEFE" transform="translate(38.87890625,120.8046875)"/>
<path d="M0 0 C9.07007522 6.13239904 15.85523036 13.71867091 19.20703125 24.26953125 C19.77324615 28.26562847 19.81265578 32.1761561 19.76953125 36.20703125 C19.80530273 37.7374707 19.80530273 37.7374707 19.84179688 39.29882812 C19.8192644 51.06829035 14.22151562 59.92351245 6.20703125 68.26953125 C-4.26807991 76.96826866 -16.09272184 79.23795122 -29.42578125 78.03125 C-40.68449059 76.4434833 -49.58266786 70.98744051 -56.79296875 62.26953125 C-65.05425631 51.05778385 -65.04611282 38.75968799 -63.79296875 25.26953125 C-62.46309684 18.66644109 -59.23875428 13.26659419 -54.79296875 8.26953125 C-54.13296875 8.26953125 -53.47296875 8.26953125 -52.79296875 8.26953125 C-52.46296875 7.27953125 -52.13296875 6.28953125 -51.79296875 5.26953125 C-36.97699226 -7.63084424 -16.8990046 -10.47029236 0 0 Z " fill="#FEFEFE" transform="translate(274.79296875,5.73046875)"/>
<path d="M0 0 C8.18878174 6.24096472 13.32768575 15.04555726 16.5625 24.75 C17.91634586 38.69118489 16.58767712 50.05551684 8.25 61.625 C0.49826831 70.86359402 -10.40160506 76.47997862 -22.4375 77.75 C-33.02953697 77.88094551 -42.96110719 75.25513867 -51.4375 68.75 C-52.4275 68.028125 -53.4175 67.30625 -54.4375 66.5625 C-60.87638024 61.0531169 -65.7754896 52.65930795 -66.72241211 44.20678711 C-66.8394987 41.4231479 -66.84698661 38.66075185 -66.8125 35.875 C-66.82410156 34.94558594 -66.83570312 34.01617187 -66.84765625 33.05859375 C-66.81353322 24.90318889 -65.63325521 16.6608364 -60.375 10.125 C-59.86839844 9.47273438 -59.36179687 8.82046875 -58.83984375 8.1484375 C-57.4375 6.75 -57.4375 6.75 -55.4375 6.75 C-55.1075 5.76 -54.7775 4.77 -54.4375 3.75 C-39.57213512 -10.20854524 -16.67972165 -10.92809349 0 0 Z " fill="#FEFEFE" transform="translate(66.4375,373.25)"/>
<path d="M0 0 C6.06509389 4.23146085 6.06509389 4.23146085 7.6875 7.875 C8.48734432 12.94498093 8.89875399 18.21024123 6.73046875 22.98046875 C3.66142973 26.92637606 -0.07300279 28.58711247 -4.92578125 29.2109375 C-11.30807701 29.30330068 -15.99176533 28.52883785 -21.3125 24.875 C-24.79608831 21.39141169 -24.4704871 17.57588249 -24.5 12.8125 C-24.51417969 11.76964844 -24.52835938 10.72679687 -24.54296875 9.65234375 C-24.3125 6.875 -24.3125 6.875 -22.3125 3.875 C-19.9375 2.3125 -19.9375 2.3125 -17.3125 0.875 C-16.69890625 0.52179688 -16.0853125 0.16859375 -15.453125 -0.1953125 C-10.54907663 -2.32517292 -4.94400935 -1.67909752 0 0 Z " fill="#FEFEFD" transform="translate(261.3125,272.125)"/>
<path d="M0 0 C3.68795207 3.25912044 6.5465523 6.14749762 7.3359375 11.11328125 C7.43961632 16.95039888 6.56229051 20.31277564 3 25 C-1.56774862 28.54000518 -6.49340241 28.57580948 -12.0859375 28.40234375 C-16.47965231 27.79570484 -19.21509885 26.47303079 -22 23 C-24.59558478 18.46649551 -25.3802087 14.39204746 -24.4375 9.25 C-23.08113352 4.51098786 -21.11818993 1.27091396 -16.8125 -1.3125 C-11.2130035 -2.68126581 -5.10131868 -2.97576923 0 0 Z " fill="#FEFEFE" transform="translate(219,273)"/>
<path d="M0 0 C3.24213973 2.31581409 5.37205418 4.08847314 6.625 7.875 C8.32991928 19.37297561 8.32991928 19.37297561 5.12109375 24.08203125 C-0.1853178 28.63513177 -4.41916828 29.22686373 -11.31640625 29.15234375 C-15.81106026 28.74478253 -17.89109858 27.75300552 -21.375 24.875 C-24.4799763 19.34004224 -23.97301954 11.83600003 -23.04296875 5.67578125 C-21.88436443 2.5522924 -19.14997925 1.48448797 -16.375 -0.125 C-10.9465082 -1.93449727 -5.4118739 -1.80395797 0 0 Z " fill="#FEFEFE" transform="translate(305.375,272.125)"/>
</svg>
