<?xml version="1.0" encoding="UTF-8"?>
<svg version="1.1" xmlns="http://www.w3.org/2000/svg" width="556" height="449">
<path d="M0 0 C0.99 0.33 1.98 0.66 3 1 C3.0093457 1.69335449 3.01869141 2.38670898 3.02832031 3.10107422 C3.45948993 28.67112349 6.0614067 51.3155582 24 71 C24.72574219 71.69480469 25.45148438 72.38960938 26.19921875 73.10546875 C28 75 28 75 28 77 C28.5775 77.268125 29.155 77.53625 29.75 77.8125 C32.05550043 79.02929189 34.02056192 80.30333879 36 82 C36 82.66 36 83.32 36 84 C36.57637207 84.28375488 37.15274414 84.56750977 37.74658203 84.85986328 C39.88036951 85.9394719 41.96696094 87.07645435 44.0546875 88.2421875 C53.51932808 93.44246361 62.35257607 97.78120524 73 100 C73.88816406 100.19078125 74.77632812 100.3815625 75.69140625 100.578125 C99.53542566 103.61844861 123.09537935 99.43586699 142.4375 84.6875 C143.07558594 84.17574219 143.71367187 83.66398437 144.37109375 83.13671875 C146 82 146 82 148 82 C148.33 81.01 148.66 80.02 149 79 C150.390625 77.73828125 150.390625 77.73828125 152.25 76.3125 C161.93441315 68.10595959 169.36037902 56.96943276 176.875 46.81640625 C180.43937622 42.09229732 184.2230624 37.5543267 188 33 C188.52980469 32.33355469 189.05960937 31.66710937 189.60546875 30.98046875 C190.69363271 29.61787047 191.83931296 28.30137638 193 27 C193.66 27 194.32 27 195 27 C195.33 26.01 195.66 25.02 196 24 C196.66 24 197.32 24 198 24 C198.24387451 23.40074707 198.48774902 22.80149414 198.73901367 22.18408203 C200.23922626 19.58564992 201.63968571 18.63300372 204.17578125 17.0546875 C205.00400391 16.53519531 205.83222656 16.01570313 206.68554688 15.48046875 C207.98588867 14.68576172 207.98588867 14.68576172 209.3125 13.875 C210.59543945 13.06869141 210.59543945 13.06869141 211.90429688 12.24609375 C222.47836141 5.67723259 222.47836141 5.67723259 228.3125 5.875 C230.1378125 5.936875 230.1378125 5.936875 232 6 C237.80026347 17.60052693 230.78704742 42.36243092 227 54 C223.26157407 64.866894 219.46057763 75.42589098 213 85 C212.32293953 86.20254023 211.65555869 87.41060439 211 88.625 C208.60686714 92.66341169 205.87194925 96.29470336 203 100 C202.45214844 100.73476563 201.90429688 101.46953125 201.33984375 102.2265625 C197.33480698 107.53620122 193.10110302 112.69631078 188 117 C187.34 117 186.68 117 186 117 C186 117.66 186 118.32 186 119 C180.35645382 125.14150614 172.97930043 129.5610926 166 134 C165.12859375 134.56074219 164.2571875 135.12148438 163.359375 135.69921875 C158.51610782 138.72245314 153.7126486 141.05811496 148.37109375 143.06640625 C146.13798743 143.94566887 144.06099399 144.94819127 141.9375 146.0625 C139.10407647 147.53353767 136.29028413 148.63685005 133.25390625 149.62109375 C132.45412354 149.88204834 131.65434082 150.14300293 130.83032227 150.41186523 C129.92431274 150.70299194 129.92431274 150.70299194 129 151 C129.17128418 151.59949463 129.34256836 152.19898926 129.51904297 152.81665039 C133.4921875 166.72265625 133.4921875 166.72265625 134.27319336 169.46655273 C134.71968723 171.02290709 135.17225291 172.57755388 135.63500977 174.12915039 C136.93343352 178.50172385 138.13228169 182.73543662 136 187 C118.09087335 192.96970888 93.92609125 185.07673859 77 179 C76.19062988 178.7205957 75.38125977 178.44119141 74.54736328 178.15332031 C56.86148243 171.99232659 41.10495797 162.33542688 27 150 C26.18789062 149.30777344 25.37578125 148.61554688 24.5390625 147.90234375 C9.30815143 134.61630286 9.30815143 134.61630286 6 128 C0.41005436 129.86331521 -2.31926657 135.97106948 -5 141 C-9.92144384 152.50434698 -12.59629284 165.15644056 -13.4375 177.625 C-13.91062205 182.85562715 -15.68042545 186.02153936 -19.7265625 189.47265625 C-23.96629622 192.50465705 -27.53779937 193.7367471 -32.7578125 193.4296875 C-38.02828653 192.41966635 -42.41176222 189.97306328 -46 186 C-48.99139748 180.80441491 -48.79605526 174.41664592 -47.46484375 168.703125 C-46.7261736 166.42656783 -45.89735691 164.21878122 -45 162 C-44.66355469 161.16210938 -44.32710938 160.32421875 -43.98046875 159.4609375 C-43.46419922 158.18089844 -43.46419922 158.18089844 -42.9375 156.875 C-35.6280455 138.74085715 -36.67873028 119.96296659 -44 102 C-44.41185547 100.87851562 -44.41185547 100.87851562 -44.83203125 99.734375 C-47.22662305 93.65495472 -50.96813282 88.79298737 -54.9765625 83.69921875 C-57 81 -57 81 -58.0234375 78.76953125 C-59.30087942 76.4548065 -60.61856613 76.06723518 -63 75 C-64.26788575 73.98017885 -65.51633007 72.93595614 -66.75 71.875 C-78.72237925 62.44699789 -92.57668904 57.23912216 -107.75 56.625 C-115.79698805 56.21317871 -120.02856173 54.20001044 -125.4375 48.375 C-128.60156679 43.56561848 -128.64971349 38.58584848 -128 33 C-126.92356735 30.33947213 -125.65319362 28.37646584 -124 26 C-123.34 26 -122.68 26 -122 26 C-122 25.34 -122 24.68 -122 24 C-118.4452191 21.03768259 -114.60702513 20.03063717 -110.0859375 19.6640625 C-103.9022524 20.33722316 -98.42640214 23.39468451 -92.88842773 26.0847168 C-81.47862282 31.61482134 -69.56247134 32.53789587 -57 32 C-56.08734375 31.97035156 -55.1746875 31.94070313 -54.234375 31.91015625 C-36.9415092 30.8972884 -19.67474122 21.59895431 -8.078125 8.89453125 C-6.88516348 7.54135795 -5.70487236 6.17680803 -4.54296875 4.796875 C-3.09717227 3.11316264 -1.58992015 1.54694933 0 0 Z " fill="#FEFEFE" transform="translate(195,246)"/>
<path d="M0 0 C3.82603287 2.72684111 6.58989983 5.52286691 8.62109375 9.82421875 C9.11609375 10.81421875 9.11609375 10.81421875 9.62109375 11.82421875 C11.08855189 19.89523853 7.99776666 25.67877179 4.30859375 32.5703125 C-3.76908058 48.14601324 -1.50310473 70.40546279 3.12109375 86.69921875 C5.4450387 93.35173293 9.34812337 98.85986532 13.37890625 104.57421875 C15.62109375 107.82421875 15.62109375 107.82421875 16.73828125 110.19921875 C17.58028753 112.18986744 17.58028753 112.18986744 20.62109375 112.82421875 C20.62109375 113.48421875 20.62109375 114.14421875 20.62109375 114.82421875 C21.28109375 114.82421875 21.94109375 114.82421875 22.62109375 114.82421875 C22.62109375 115.48421875 22.62109375 116.14421875 22.62109375 116.82421875 C23.19601562 117.09621094 23.7709375 117.36820312 24.36328125 117.6484375 C26.63483117 118.83137267 28.64840178 120.16988248 30.74609375 121.63671875 C42.66962103 129.63112285 54.66001696 134.14899046 69.078125 134.55078125 C76.01892948 135.08645525 80.72104394 136.81280417 85.62109375 141.82421875 C88.86082503 147.33176193 89.42125506 152.57680548 88.62109375 158.82421875 C87.12109375 162.44921875 87.12109375 162.44921875 85.62109375 164.82421875 C84.96109375 164.82421875 84.30109375 164.82421875 83.62109375 164.82421875 C83.29109375 165.81421875 82.96109375 166.80421875 82.62109375 167.82421875 C77.32744097 170.80189844 72.65226474 171.61977428 66.62109375 170.82421875 C63.48617224 169.72424629 60.6911893 168.39073992 57.76171875 166.83984375 C41.51811255 158.39316853 20.28144809 157.15229676 2.62109375 161.82421875 C-12.15935224 166.66608899 -27.01395393 175.44029505 -35.37890625 188.82421875 C-36.03890625 188.82421875 -36.69890625 188.82421875 -37.37890625 188.82421875 C-38.03890625 190.14421875 -38.69890625 191.46421875 -39.37890625 192.82421875 C-40.03890625 192.82421875 -40.69890625 192.82421875 -41.37890625 192.82421875 C-42.79780859 189.98641407 -42.56154809 187.51768796 -42.625 184.34765625 C-42.65787109 183.03667969 -42.69074219 181.72570312 -42.72460938 180.375 C-42.77173484 178.29513115 -42.81610038 176.21527983 -42.85571289 174.13525391 C-43.09214774 162.29652189 -45.1094858 153.13057156 -49.19140625 142.07421875 C-49.5474292 141.10282959 -49.90345215 140.13144043 -50.27026367 139.13061523 C-53.18717941 131.22592562 -56.30156938 123.44379225 -59.7578125 115.7578125 C-61.98164528 110.5590138 -63.71504433 105.1842519 -65.50390625 99.82421875 C-65.86355469 98.76976562 -66.22320312 97.7153125 -66.59375 96.62890625 C-69.32010209 88.48048315 -70.57604397 81.01618598 -70.56640625 72.44921875 C-70.56560059 71.70406006 -70.56479492 70.95890137 -70.56396484 70.19116211 C-70.41564137 56.86095387 -70.41564137 56.86095387 -66.37890625 52.82421875 C-63.43630995 53.1307392 -61.03348317 53.49693029 -58.37890625 54.82421875 C-58.37890625 55.48421875 -58.37890625 56.14421875 -58.37890625 56.82421875 C-57.816875 56.92605469 -57.25484375 57.02789062 -56.67578125 57.1328125 C-53.92551137 57.96069986 -51.98794751 59.25620493 -49.62890625 60.88671875 C-48.8296875 61.43457031 -48.03046875 61.98242188 -47.20703125 62.546875 C-46.60375 62.96839844 -46.00046875 63.38992187 -45.37890625 63.82421875 C-41.04876421 62.34539792 -39.46060265 59.2007218 -37.37890625 55.38671875 C-37.02932861 54.75491699 -36.67975098 54.12311523 -36.31958008 53.47216797 C-29.90248272 41.61439041 -26.77026202 28.76651327 -26.00390625 15.32421875 C-25.49961324 9.5636409 -23.11484319 5.34641061 -18.87890625 1.44140625 C-13.39571088 -2.32829057 -5.96885529 -2.95012388 0 0 Z " fill="#FEFEFE" transform="translate(415.37890625,82.17578125)"/>
<path d="M0 0 C5.19402202 2.53760226 8.3038018 5.93390947 11 11 C11.62841797 13.71630859 11.62841797 13.71630859 11.9921875 16.6484375 C12.13696533 17.72931641 12.28174316 18.81019531 12.4309082 19.92382812 C12.5774585 21.06271484 12.72400879 22.20160156 12.875 23.375 C14.95643296 37.96416339 17.628748 50.23433119 27 62 C28.10570595 63.51971458 29.20997426 65.04047666 30.3125 66.5625 C32.25441859 69.25067233 32.25441859 69.25067233 35 71 C35 71.66 35 72.32 35 73 C35.58652344 73.27328125 36.17304688 73.5465625 36.77734375 73.828125 C38.93919237 74.96793974 40.66150931 76.22263815 42.5625 77.75 C49.6228963 83.09441872 56.57169013 87.1015579 65.3671875 88.515625 C68.51337005 89.0944479 71.50486124 89.93530015 74.5625 90.875 C75.57441406 91.18179688 76.58632812 91.48859375 77.62890625 91.8046875 C80 93 80 93 80.83984375 95.1328125 C80.89269531 95.74898438 80.94554687 96.36515625 81 97 C77.32018983 100.12749344 73.56657195 102.41516817 69.3125 104.6875 C59.87339226 109.92759745 52.64561121 116.52960924 46.375 125.34765625 C45.92125 125.89292969 45.4675 126.43820313 45 127 C44.34 127 43.68 127 43 127 C42.62875 127.804375 42.62875 127.804375 42.25 128.625 C40.69347463 131.5823982 38.96564327 134.29724051 37 137 C36.34 137 35.68 137 35 137 C34.72800781 137.56847656 34.45601562 138.13695312 34.17578125 138.72265625 C30.96471219 144.9421023 27.00047624 150.12453566 22 155 C21.04548326 156.2581023 20.10939226 157.53029944 19.1875 158.8125 C15.91115031 163.28024957 12.23478271 167.41378762 8 171 C7.34 171 6.68 171 6 171 C5.67 171.99 5.34 172.98 5 174 C-3.00323309 180.50530177 -12.28877534 186.9518957 -23 187 C-24.84375 185.921875 -24.84375 185.921875 -26 184 C-26.328125 181.21484375 -26.328125 181.21484375 -26.25 177.9375 C-26.23453125 176.87402344 -26.2190625 175.81054688 -26.203125 174.71484375 C-25.95215676 170.12502072 -25.49360204 165.5692626 -25 161 C-43.01018824 160.51438237 -58.66621797 161.15679097 -74.98828125 169.4765625 C-80.10469688 172.06463266 -84.34605363 172.66905032 -90 172 C-95.39249532 170.12760579 -98.76063183 166.57322565 -102 162 C-103.96413559 157.31629207 -103.35571622 152.19269555 -101.9375 147.4375 C-99.07749192 142.36329211 -95.63528313 139.08380658 -90.2265625 136.859375 C-86.63894872 135.90383622 -83.39528729 135.68955813 -79.6875 135.5625 C-73.66089684 135.25457137 -68.54258461 134.40677998 -63 132 C-62.12988281 131.63777344 -61.25976562 131.27554688 -60.36328125 130.90234375 C-41.01587214 122.51037132 -26.1370987 109.27403433 -17.95703125 89.58984375 C-10.47464121 69.3415801 -11.97897057 49.92645675 -20 30 C-20.59635167 28.7462528 -21.19863624 27.49526649 -21.8125 26.25 C-23.86492035 20.63284958 -23.92935795 14.76189032 -21.8125 9.125 C-16.9540831 0.74841915 -9.16929568 -1.4564489 0 0 Z " fill="#FEFEFE" transform="translate(170,81)"/>
<path d="M0 0 C5.35999171 2.34944608 8.55141166 5.7031327 11.99609375 10.33984375 C12.50011719 11.01789063 13.00414062 11.6959375 13.5234375 12.39453125 C14.03003906 13.07773438 14.53664062 13.7609375 15.05859375 14.46484375 C17.47731623 17.72322636 20.01084556 20.57302835 22.99609375 23.33984375 C23.92421875 24.24734375 24.85234375 25.15484375 25.80859375 26.08984375 C43.12715891 40.83558438 63.00691726 43.51697738 84.99609375 42.33984375 C102.52118668 40.81558277 119.61418453 30.51164998 130.99609375 17.33984375 C133.08573355 14.56157266 135.10264991 11.74093327 137.109375 8.90234375 C140.13461122 4.79353431 143.03803303 0.99253066 147.99609375 -0.66015625 C155.88215384 -1.32846643 160.69328473 0.75503669 166.87109375 5.58984375 C171.08960447 11.04909292 171.26859992 16.55787121 170.7734375 23.1640625 C168.84847945 28.55201041 163.1868371 31.84550534 158.74609375 35.15234375 C141.25015702 48.50125995 127.93765963 64.74278028 124.83251953 87.29785156 C123.29292913 100.88247272 124.43625808 112.9506731 129.875 125.66796875 C130.81383599 127.90547333 131.4947921 129.97415056 131.99609375 132.33984375 C129.07990351 133.57361655 128.05729383 133.36458421 125.05859375 132.15234375 C121.99609375 130.33984375 121.99609375 130.33984375 119.8203125 128.48046875 C116.32310051 125.82974652 112.73115552 124.07895269 108.74609375 122.27734375 C108.05257812 121.93896484 107.3590625 121.60058594 106.64453125 121.25195312 C92.75483134 114.95285238 75.84110491 114.42930591 60.85107422 112.53759766 C42.16308748 110.16676216 22.81497855 107.24654853 6.99609375 96.33984375 C6.22007812 95.84355469 5.4440625 95.34726563 4.64453125 94.8359375 C1.19733134 92.50329162 -0.6823681 91.14368911 -2.25390625 87.21484375 C-2.00390625 84.33984375 -2.00390625 84.33984375 -0.62890625 82.21484375 C2.36139445 80.07891468 5.35974898 78.69887625 8.7421875 77.2890625 C10.67726329 76.47411724 12.5624368 75.54243274 14.43359375 74.58984375 C16.99609375 73.33984375 16.99609375 73.33984375 18.99609375 73.33984375 C13.80356943 62.48035126 8.9238287 52.6588695 -0.00390625 44.33984375 C-0.71289062 43.64890625 -1.421875 42.95796875 -2.15234375 42.24609375 C-6.52770634 38.10537206 -10.59659843 34.84890146 -16.00390625 32.15234375 C-20.80149822 29.66219729 -20.80149822 29.66219729 -22.69140625 26.65234375 C-24.06806418 12.05976972 -24.06806418 12.05976972 -20.00390625 6.33984375 C-19.01390625 6.00984375 -18.02390625 5.67984375 -17.00390625 5.33984375 C-17.00390625 4.67984375 -17.00390625 4.01984375 -17.00390625 3.33984375 C-11.32152107 0.03372874 -6.64126665 -2.18786367 0 0 Z " fill="#FEFEFE" transform="translate(211.00390625,57.66015625)"/>
<path d="M0 0 C1.6640625 1.03515625 1.6640625 1.03515625 3.8515625 2.84765625 C3.8515625 3.50765625 3.8515625 4.16765625 3.8515625 4.84765625 C4.5115625 4.84765625 5.1715625 4.84765625 5.8515625 4.84765625 C13.65295443 13.51378078 16.57406307 23.35244697 16.1875 34.875 C15.04286911 45.00365242 10.16483596 52.86781471 2.8515625 59.84765625 C-6.56166724 66.36651341 -15.75157729 69.01848123 -27.1484375 67.84765625 C-38.74214841 65.2601108 -47.3930579 59.65764228 -54.1484375 49.84765625 C-59.13026538 40.86980389 -59.4377951 29.81939698 -57.6015625 19.890625 C-55.03969527 11.44371372 -49.26439485 4.35441247 -42 -0.625 C-40.07994748 -1.62297196 -38.17750945 -2.4054461 -36.1484375 -3.15234375 C-35.54902344 -3.44625 -34.94960938 -3.74015625 -34.33203125 -4.04296875 C-22.71955619 -9.3764646 -10.6915713 -5.73457006 0 0 Z " fill="#FEFEFE" transform="translate(306.1484375,16.15234375)"/>
<path d="M0 0 C6.62215543 5.9018508 11.13177785 14.48270948 11.66015625 23.38671875 C11.68333739 24.89826032 11.68420193 26.41028985 11.6640625 27.921875 C11.65721436 28.71384277 11.65036621 29.50581055 11.64331055 30.32177734 C11.47833696 36.3189072 10.48167928 40.87373563 7.2265625 45.984375 C6.84113281 46.68820313 6.45570313 47.39203125 6.05859375 48.1171875 C0.87736342 57.20530025 -6.90264231 61.44076436 -16.6953125 64.60546875 C-27.66127427 66.60490163 -36.48636631 64.55937627 -45.9609375 59.171875 C-49.51406436 56.40833189 -52.8868395 53.45170869 -55.7734375 49.984375 C-55.7734375 49.324375 -55.7734375 48.664375 -55.7734375 47.984375 C-56.4334375 47.984375 -57.0934375 47.984375 -57.7734375 47.984375 C-63.05105242 38.34699124 -63.44938267 25.09501434 -60.6484375 14.484375 C-58.96305727 9.7412335 -56.3440691 5.54570808 -52.7734375 1.984375 C-51.7834375 1.654375 -50.7934375 1.324375 -49.7734375 0.984375 C-49.7734375 0.324375 -49.7734375 -0.335625 -49.7734375 -1.015625 C-32.62503653 -11.0398741 -16.67665959 -12.3883757 0 0 Z " fill="#FEFEFE" transform="translate(125.7734375,125.015625)"/>
<path d="M0 0 C8.04094538 5.76788662 13.55009839 13.01282306 15.890625 22.70703125 C17.72855349 34.05794144 16.10981302 44.39782281 9.48046875 53.953125 C2.20304381 62.62287779 -6.53096824 67.48061492 -17.828125 68.6328125 C-29.88034028 69.06120878 -38.85445094 65.441868 -47.6875 57.3125 C-49.9375 54.9375 -49.9375 54.9375 -51.6875 52.3125 C-52.30262451 51.41881714 -52.30262451 51.41881714 -52.93017578 50.50708008 C-56.93985786 44.12683384 -57.45281988 38.80727633 -57.3125 31.375 C-57.33183594 30.35470703 -57.35117187 29.33441406 -57.37109375 28.28320312 C-57.32374904 20.86428764 -55.52949333 15.63384803 -51.6875 9.3125 C-51.0275 9.3125 -50.3675 9.3125 -49.6875 9.3125 C-49.43742187 8.7246875 -49.18734375 8.136875 -48.9296875 7.53125 C-45.05387141 0.60840868 -37.09195321 -2.88188292 -29.80078125 -5.03125 C-19.18364948 -7.26924014 -9.21722422 -5.71405623 0 0 Z " fill="#FEFEFE" transform="translate(491.6875,121.6875)"/>
<path d="M0 0 C7.24369829 5.38721587 13.73312114 13.9663463 15.14477539 23.08349609 C15.32281453 25.44029872 15.38166369 27.76153322 15.375 30.125 C15.3740332 30.95926514 15.37306641 31.79353027 15.37207031 32.65307617 C15.15977494 40.17720239 12.95732074 45.65341694 8.8125 51.9375 C8.29623047 52.88689453 8.29623047 52.88689453 7.76953125 53.85546875 C5.40284197 58.04109826 1.97213036 59.87912621 -2.1875 61.9375 C-2.76113281 62.288125 -3.33476563 62.63875 -3.92578125 63 C-11.9145865 67.65300863 -21.53063276 68.89110298 -30.5 66.875 C-41.31337372 63.60215222 -48.68313482 58.02188077 -54.828125 48.53515625 C-60.06411335 38.52960381 -60.04813161 28.02353929 -57.41796875 17.29296875 C-53.73377222 7.2462233 -45.44997035 0.52086578 -36.11328125 -4.0859375 C-24.22763844 -8.87534625 -10.57539996 -6.7428114 0 0 Z " fill="#FEFEFE" transform="translate(122.1875,336.0625)"/>
<path d="M0 0 C4.25786719 2.11223608 7.27673306 4.4886172 9 9 C9.65408074 14.1033509 9.83420134 18.54014765 7.25 23.0625 C2.76768106 26.92227464 -0.72792686 27.36370977 -6.515625 27.26953125 C-9.80076298 26.91312477 -12.22458975 25.75289068 -15 24 C-15 23.34 -15 22.68 -15 22 C-15.66 22 -16.32 22 -17 22 C-18.36538938 19.26922124 -18.13231826 17.04439633 -18.125 14 C-18.12757813 12.9275 -18.13015625 11.855 -18.1328125 10.75 C-18 8 -18 8 -17 6 C-16.34 6 -15.68 6 -15 6 C-15 5.34 -15 4.68 -15 4 C-10.03815426 0.69210284 -6.02828005 -1.38295836 0 0 Z " fill="#FEFEFD" transform="translate(290,246)"/>
<path d="M0 0 C0.845625 0.495 1.69125 0.99 2.5625 1.5 C2.5625 2.16 2.5625 2.82 2.5625 3.5 C3.5525 3.83 4.5425 4.16 5.5625 4.5 C7.10270319 9.12060956 7.07824193 13.67463376 6.5625 18.5 C4.44973624 22.19733657 2.43695006 23.8914738 -1.4375 25.5 C-7.2627882 26.24017688 -12.57552693 26.05754127 -17.4375 22.5 C-20.4980786 18.11317067 -21.33963045 13.75060197 -20.4375 8.5 C-19.04152793 4.54080239 -17.12382629 1.97280255 -13.625 -0.4375 C-8.50624663 -2.14375112 -4.96523636 -2.16664859 0 0 Z " fill="#FEFEFE" transform="translate(254.4375,247.5)"/>
<path d="M0 0 C4.11940984 1.59159017 6.23442412 4.04365351 8.26953125 7.97265625 C9.60520402 11.67968389 9.70187058 15.1397118 9 19 C6.91859234 23.08847933 5.24275229 25.31515252 1 27 C-4.86714084 27.74549479 -10.05557105 27.49727901 -15 24 C-18.48615227 20.1652325 -18.3236048 16.33983732 -18.30078125 11.40234375 C-17.86717883 7.93915558 -16.95299352 5.85008812 -14.3359375 3.515625 C-9.26941867 0.24560089 -6.02979873 -0.79079328 0 0 Z " fill="#FEFEFD" transform="translate(328,246)"/>
</svg>
